# Tiled2Unity generated file. Do not modify by hand.
# Wavefront file for 'demo_map_mesh_0003.obj'

# Vertices (Count = 512)
v -5.28 -0.16 0
v -5.44 -0.16 0
v -5.44 0 0
v -5.28 0 0
v -5.44 -0.16 0
v -5.6 -0.16 0
v -5.6 0 0
v -5.44 0 0
v -5.28 -0.32 0
v -5.44 -0.32 0
v -5.44 -0.16 0
v -5.28 -0.16 0
v -5.44 -0.32 0
v -5.6 -0.32 0
v -5.6 -0.16 0
v -5.44 -0.16 0
v -5.28 -0.48 0
v -5.44 -0.48 0
v -5.44 -0.32 0
v -5.28 -0.32 0
v -5.44 -0.48 0
v -5.6 -0.48 0
v -5.6 -0.32 0
v -5.44 -0.32 0
v -5.12 -0.64 0
v -5.28 -0.64 0
v -5.28 -0.48 0
v -5.12 -0.48 0
v -5.28 -0.64 0
v -5.44 -0.64 0
v -5.44 -0.48 0
v -5.28 -0.48 0
v -5.44 -0.64 0
v -5.6 -0.64 0
v -5.6 -0.48 0
v -5.44 -0.48 0
v -5.12 -0.8 0
v -5.28 -0.8 0
v -5.28 -0.64 0
v -5.12 -0.64 0
v -5.28 -0.8 0
v -5.44 -0.8 0
v -5.44 -0.64 0
v -5.28 -0.64 0
v -5.44 -0.8 0
v -5.6 -0.8 0
v -5.6 -0.64 0
v -5.44 -0.64 0
v -4.96 -0.96 0
v -5.12 -0.96 0
v -5.12 -0.8 0
v -4.96 -0.8 0
v -5.12 -0.96 0
v -5.28 -0.96 0
v -5.28 -0.8 0
v -5.12 -0.8 0
v -5.28 -0.96 0
v -5.44 -0.96 0
v -5.44 -0.8 0
v -5.28 -0.8 0
v -4.96 -1.12 0
v -5.12 -1.12 0
v -5.12 -0.96 0
v -4.96 -0.96 0
v -5.12 -1.12 0
v -5.28 -1.12 0
v -5.28 -0.96 0
v -5.12 -0.96 0
v -5.28 -1.12 0
v -5.44 -1.12 0
v -5.44 -0.96 0
v -5.28 -0.96 0
v -4.96 -1.28 0
v -5.12 -1.28 0
v -5.12 -1.12 0
v -4.96 -1.12 0
v -5.12 -1.28 0
v -5.28 -1.28 0
v -5.28 -1.12 0
v -5.12 -1.12 0
v -4.8 -1.44 0
v -4.96 -1.44 0
v -4.96 -1.28 0
v -4.8 -1.28 0
v -4.96 -1.44 0
v -5.12 -1.44 0
v -5.12 -1.28 0
v -4.96 -1.28 0
v -5.12 -1.44 0
v -5.28 -1.44 0
v -5.28 -1.28 0
v -5.12 -1.28 0
v -4.8 -1.6 0
v -4.96 -1.6 0
v -4.96 -1.44 0
v -4.8 -1.44 0
v -4.96 -1.6 0
v -5.12 -1.6 0
v -5.12 -1.44 0
v -4.96 -1.44 0
v -5.12 -1.6 0
v -5.28 -1.6 0
v -5.28 -1.44 0
v -5.12 -1.44 0
v -4.8 -1.76 0
v -4.96 -1.76 0
v -4.96 -1.6 0
v -4.8 -1.6 0
v -4.96 -1.76 0
v -5.12 -1.76 0
v -5.12 -1.6 0
v -4.96 -1.6 0
v -5.12 -1.76 0
v -5.28 -1.76 0
v -5.28 -1.6 0
v -5.12 -1.6 0
v -4.8 -1.92 0
v -4.96 -1.92 0
v -4.96 -1.76 0
v -4.8 -1.76 0
v -4.96 -1.92 0
v -5.12 -1.92 0
v -5.12 -1.76 0
v -4.96 -1.76 0
v -4.64 -2.08 0
v -4.8 -2.08 0
v -4.8 -1.92 0
v -4.64 -1.92 0
v -4.8 -2.08 0
v -4.96 -2.08 0
v -4.96 -1.92 0
v -4.8 -1.92 0
v -4.96 -2.08 0
v -5.12 -2.08 0
v -5.12 -1.92 0
v -4.96 -1.92 0
v -4.64 -2.24 0
v -4.8 -2.24 0
v -4.8 -2.08 0
v -4.64 -2.08 0
v -4.8 -2.24 0
v -4.96 -2.24 0
v -4.96 -2.08 0
v -4.8 -2.08 0
v -4.96 -2.24 0
v -5.12 -2.24 0
v -5.12 -2.08 0
v -4.96 -2.08 0
v -4.48 -2.4 0
v -4.64 -2.4 0
v -4.64 -2.24 0
v -4.48 -2.24 0
v -4.64 -2.4 0
v -4.8 -2.4 0
v -4.8 -2.24 0
v -4.64 -2.24 0
v -4.8 -2.4 0
v -4.96 -2.4 0
v -4.96 -2.24 0
v -4.8 -2.24 0
v -4.96 -2.4 0
v -5.12 -2.4 0
v -5.12 -2.24 0
v -4.96 -2.24 0
v -4.48 -2.56 0
v -4.64 -2.56 0
v -4.64 -2.4 0
v -4.48 -2.4 0
v -4.64 -2.56 0
v -4.8 -2.56 0
v -4.8 -2.4 0
v -4.64 -2.4 0
v -4.8 -2.56 0
v -4.96 -2.56 0
v -4.96 -2.4 0
v -4.8 -2.4 0
v -4.32 -2.72 0
v -4.48 -2.72 0
v -4.48 -2.56 0
v -4.32 -2.56 0
v -4.48 -2.72 0
v -4.64 -2.72 0
v -4.64 -2.56 0
v -4.48 -2.56 0
v -4.64 -2.72 0
v -4.8 -2.72 0
v -4.8 -2.56 0
v -4.64 -2.56 0
v -4.32 -2.88 0
v -4.48 -2.88 0
v -4.48 -2.72 0
v -4.32 -2.72 0
v -4.48 -2.88 0
v -4.64 -2.88 0
v -4.64 -2.72 0
v -4.48 -2.72 0
v -4.64 -2.88 0
v -4.8 -2.88 0
v -4.8 -2.72 0
v -4.64 -2.72 0
v -4.16 -3.04 0
v -4.32 -3.04 0
v -4.32 -2.88 0
v -4.16 -2.88 0
v -4.32 -3.04 0
v -4.48 -3.04 0
v -4.48 -2.88 0
v -4.32 -2.88 0
v -4.48 -3.04 0
v -4.64 -3.04 0
v -4.64 -2.88 0
v -4.48 -2.88 0
v -4 -3.2 0
v -4.16 -3.2 0
v -4.16 -3.04 0
v -4 -3.04 0
v -4.16 -3.2 0
v -4.32 -3.2 0
v -4.32 -3.04 0
v -4.16 -3.04 0
v -4.32 -3.2 0
v -4.48 -3.2 0
v -4.48 -3.04 0
v -4.32 -3.04 0
v -4.48 -3.2 0
v -4.64 -3.2 0
v -4.64 -3.04 0
v -4.48 -3.04 0
v -4 -3.36 0
v -4.16 -3.36 0
v -4.16 -3.2 0
v -4 -3.2 0
v -4.16 -3.36 0
v -4.32 -3.36 0
v -4.32 -3.2 0
v -4.16 -3.2 0
v -4.32 -3.36 0
v -4.48 -3.36 0
v -4.48 -3.2 0
v -4.32 -3.2 0
v -3.84 -3.52 0
v -4 -3.52 0
v -4 -3.36 0
v -3.84 -3.36 0
v -4 -3.52 0
v -4.16 -3.52 0
v -4.16 -3.36 0
v -4 -3.36 0
v -4.16 -3.52 0
v -4.32 -3.52 0
v -4.32 -3.36 0
v -4.16 -3.36 0
v -3.68 -3.68 0
v -3.84 -3.68 0
v -3.84 -3.52 0
v -3.68 -3.52 0
v -3.84 -3.68 0
v -4 -3.68 0
v -4 -3.52 0
v -3.84 -3.52 0
v -4 -3.68 0
v -4.16 -3.68 0
v -4.16 -3.52 0
v -4 -3.52 0
v -3.52 -3.84 0
v -3.68 -3.84 0
v -3.68 -3.68 0
v -3.52 -3.68 0
v -3.68 -3.84 0
v -3.84 -3.84 0
v -3.84 -3.68 0
v -3.68 -3.68 0
v -3.84 -3.84 0
v -4 -3.84 0
v -4 -3.68 0
v -3.84 -3.68 0
v -4 -3.84 0
v -4.16 -3.84 0
v -4.16 -3.68 0
v -4 -3.68 0
v -3.52 -4 0
v -3.68 -4 0
v -3.68 -3.84 0
v -3.52 -3.84 0
v -3.68 -4 0
v -3.84 -4 0
v -3.84 -3.84 0
v -3.68 -3.84 0
v -3.84 -4 0
v -4 -4 0
v -4 -3.84 0
v -3.84 -3.84 0
v -3.36 -4.16 0
v -3.52 -4.16 0
v -3.52 -4 0
v -3.36 -4 0
v -3.52 -4.16 0
v -3.68 -4.16 0
v -3.68 -4 0
v -3.52 -4 0
v -3.68 -4.16 0
v -3.84 -4.16 0
v -3.84 -4 0
v -3.68 -4 0
v -3.36 -4.32 0
v -3.52 -4.32 0
v -3.52 -4.16 0
v -3.36 -4.16 0
v -3.52 -4.32 0
v -3.68 -4.32 0
v -3.68 -4.16 0
v -3.52 -4.16 0
v -3.68 -4.32 0
v -3.84 -4.32 0
v -3.84 -4.16 0
v -3.68 -4.16 0
v -3.36 -4.48 0
v -3.52 -4.48 0
v -3.52 -4.32 0
v -3.36 -4.32 0
v -3.52 -4.48 0
v -3.68 -4.48 0
v -3.68 -4.32 0
v -3.52 -4.32 0
v -3.2 -4.64 0
v -3.36 -4.64 0
v -3.36 -4.48 0
v -3.2 -4.48 0
v -3.36 -4.64 0
v -3.52 -4.64 0
v -3.52 -4.48 0
v -3.36 -4.48 0
v -3.52 -4.64 0
v -3.68 -4.64 0
v -3.68 -4.48 0
v -3.52 -4.48 0
v -3.2 -4.8 0
v -3.36 -4.8 0
v -3.36 -4.64 0
v -3.2 -4.64 0
v -3.36 -4.8 0
v -3.52 -4.8 0
v -3.52 -4.64 0
v -3.36 -4.64 0
v -3.04 -4.96 0
v -3.2 -4.96 0
v -3.2 -4.8 0
v -3.04 -4.8 0
v -3.2 -4.96 0
v -3.36 -4.96 0
v -3.36 -4.8 0
v -3.2 -4.8 0
v -3.36 -4.96 0
v -3.52 -4.96 0
v -3.52 -4.8 0
v -3.36 -4.8 0
v -3.04 -5.12 0
v -3.2 -5.12 0
v -3.2 -4.96 0
v -3.04 -4.96 0
v -3.2 -5.12 0
v -3.36 -5.12 0
v -3.36 -4.96 0
v -3.2 -4.96 0
v -3.36 -5.12 0
v -3.52 -5.12 0
v -3.52 -4.96 0
v -3.36 -4.96 0
v -3.04 -5.28 0
v -3.2 -5.28 0
v -3.2 -5.12 0
v -3.04 -5.12 0
v -3.2 -5.28 0
v -3.36 -5.28 0
v -3.36 -5.12 0
v -3.2 -5.12 0
v -3.04 -5.44 0
v -3.2 -5.44 0
v -3.2 -5.28 0
v -3.04 -5.28 0
v -3.2 -5.44 0
v -3.36 -5.44 0
v -3.36 -5.28 0
v -3.2 -5.28 0
v -3.04 -5.6 0
v -3.2 -5.6 0
v -3.2 -5.44 0
v -3.04 -5.44 0
v -3.2 -5.6 0
v -3.36 -5.6 0
v -3.36 -5.44 0
v -3.2 -5.44 0
v -3.04 -5.76 0
v -3.2 -5.76 0
v -3.2 -5.6 0
v -3.04 -5.6 0
v -3.2 -5.76 0
v -3.36 -5.76 0
v -3.36 -5.6 0
v -3.2 -5.6 0
v -3.04 -5.92 0
v -3.2 -5.92 0
v -3.2 -5.76 0
v -3.04 -5.76 0
v -3.2 -5.92 0
v -3.36 -5.92 0
v -3.36 -5.76 0
v -3.2 -5.76 0
v -3.04 -6.08 0
v -3.2 -6.08 0
v -3.2 -5.92 0
v -3.04 -5.92 0
v -3.2 -6.08 0
v -3.36 -6.08 0
v -3.36 -5.92 0
v -3.2 -5.92 0
v -3.04 -6.24 0
v -3.2 -6.24 0
v -3.2 -6.08 0
v -3.04 -6.08 0
v -3.2 -6.24 0
v -3.36 -6.24 0
v -3.36 -6.08 0
v -3.2 -6.08 0
v -3.04 -6.4 0
v -3.2 -6.4 0
v -3.2 -6.24 0
v -3.04 -6.24 0
v -3.2 -6.4 0
v -3.36 -6.4 0
v -3.36 -6.24 0
v -3.2 -6.24 0
v -3.04 -6.56 0
v -3.2 -6.56 0
v -3.2 -6.4 0
v -3.04 -6.4 0
v -3.2 -6.56 0
v -3.36 -6.56 0
v -3.36 -6.4 0
v -3.2 -6.4 0
v -3.04 -6.72 0
v -3.2 -6.72 0
v -3.2 -6.56 0
v -3.04 -6.56 0
v -3.2 -6.72 0
v -3.36 -6.72 0
v -3.36 -6.56 0
v -3.2 -6.56 0
v -3.04 -6.88 0
v -3.2 -6.88 0
v -3.2 -6.72 0
v -3.04 -6.72 0
v -3.2 -6.88 0
v -3.36 -6.88 0
v -3.36 -6.72 0
v -3.2 -6.72 0
v -3.04 -7.04 0
v -3.2 -7.04 0
v -3.2 -6.88 0
v -3.04 -6.88 0
v -3.2 -7.04 0
v -3.36 -7.04 0
v -3.36 -6.88 0
v -3.2 -6.88 0
v -3.04 -7.2 0
v -3.2 -7.2 0
v -3.2 -7.04 0
v -3.04 -7.04 0
v -3.2 -7.2 0
v -3.36 -7.2 0
v -3.36 -7.04 0
v -3.2 -7.04 0
v -3.04 -7.36 0
v -3.2 -7.36 0
v -3.2 -7.2 0
v -3.04 -7.2 0
v -3.2 -7.36 0
v -3.36 -7.36 0
v -3.36 -7.2 0
v -3.2 -7.2 0
v -3.04 -7.52 0
v -3.2 -7.52 0
v -3.2 -7.36 0
v -3.04 -7.36 0
v -3.2 -7.52 0
v -3.36 -7.52 0
v -3.36 -7.36 0
v -3.2 -7.36 0
v -3.04 -7.68 0
v -3.2 -7.68 0
v -3.2 -7.52 0
v -3.04 -7.52 0
v -3.2 -7.68 0
v -3.36 -7.68 0
v -3.36 -7.52 0
v -3.2 -7.52 0
v -3.04 -7.84 0
v -3.2 -7.84 0
v -3.2 -7.68 0
v -3.04 -7.68 0
v -3.2 -7.84 0
v -3.36 -7.84 0
v -3.36 -7.68 0
v -3.2 -7.68 0
v -3.04 -8 0
v -3.2 -8 0
v -3.2 -7.84 0
v -3.04 -7.84 0
v -3.2 -8 0
v -3.36 -8 0
v -3.36 -7.84 0
v -3.2 -7.84 0

# Texture cooridinates (Count = 28)
vt 0.6937322 0.9225146
vt 0.7165242 0.9225146
vt 0.7165242 0.9459065
vt 0.6937322 0.9459065
vt 0.8219373 0.9225146
vt 0.8447294 0.9225146
vt 0.8447294 0.9459065
vt 0.8219373 0.9459065
vt 0.7450143 0.9225146
vt 0.7678063 0.9225146
vt 0.7678063 0.9459065
vt 0.7450143 0.9459065
vt 0.5911681 0.9225146
vt 0.6139601 0.9225146
vt 0.6139601 0.9459065
vt 0.5911681 0.9459065
vt 0.7706553 0.9225146
vt 0.7934473 0.9225146
vt 0.7934473 0.9459065
vt 0.7706553 0.9459065
vt 0.9245014 0.9225146
vt 0.9472935 0.9225146
vt 0.9472935 0.9459065
vt 0.9245014 0.9459065
vt 0.5655271 0.9225146
vt 0.5883191 0.9225146
vt 0.5883191 0.9459065
vt 0.5655271 0.9459065

# Normal
vn 0 0 -1

# Mesh description
g demo_map_mesh_0003

# Faces
f 1/1/1 2/2/1 3/3/1 4/4/1
f 5/5/1 6/6/1 7/7/1 8/8/1
f 9/1/1 10/2/1 11/3/1 12/4/1
f 13/5/1 14/6/1 15/7/1 16/8/1
f 17/1/1 18/2/1 19/3/1 20/4/1
f 21/5/1 22/6/1 23/7/1 24/8/1
f 25/9/1 26/10/1 27/11/1 28/12/1
f 29/13/1 30/14/1 31/15/1 32/16/1
f 33/5/1 34/6/1 35/7/1 36/8/1
f 37/1/1 38/2/1 39/3/1 40/4/1
f 41/17/1 42/18/1 43/19/1 44/20/1
f 45/21/1 46/22/1 47/23/1 48/24/1
f 49/9/1 50/10/1 51/11/1 52/12/1
f 53/13/1 54/14/1 55/15/1 56/16/1
f 57/5/1 58/6/1 59/7/1 60/8/1
f 61/1/1 62/2/1 63/3/1 64/4/1
f 65/17/1 66/18/1 67/19/1 68/20/1
f 69/21/1 70/22/1 71/23/1 72/24/1
f 73/1/1 74/2/1 75/3/1 76/4/1
f 77/5/1 78/6/1 79/7/1 80/8/1
f 81/9/1 82/10/1 83/11/1 84/12/1
f 85/13/1 86/14/1 87/15/1 88/16/1
f 89/5/1 90/6/1 91/7/1 92/8/1
f 93/1/1 94/2/1 95/3/1 96/4/1
f 97/25/1 98/26/1 99/27/1 100/28/1
f 101/5/1 102/6/1 103/7/1 104/8/1
f 105/1/1 106/2/1 107/3/1 108/4/1
f 109/17/1 110/18/1 111/19/1 112/20/1
f 113/21/1 114/22/1 115/23/1 116/24/1
f 117/1/1 118/2/1 119/3/1 120/4/1
f 121/5/1 122/6/1 123/7/1 124/8/1
f 125/9/1 126/10/1 127/11/1 128/12/1
f 129/13/1 130/14/1 131/15/1 132/16/1
f 133/5/1 134/6/1 135/7/1 136/8/1
f 137/1/1 138/2/1 139/3/1 140/4/1
f 141/25/1 142/26/1 143/27/1 144/28/1
f 145/5/1 146/6/1 147/7/1 148/8/1
f 149/9/1 150/10/1 151/11/1 152/12/1
f 153/13/1 154/14/1 155/15/1 156/16/1
f 157/17/1 158/18/1 159/19/1 160/20/1
f 161/21/1 162/22/1 163/23/1 164/24/1
f 165/1/1 166/2/1 167/3/1 168/4/1
f 169/17/1 170/18/1 171/19/1 172/20/1
f 173/21/1 174/22/1 175/23/1 176/24/1
f 177/9/1 178/10/1 179/11/1 180/12/1
f 181/13/1 182/14/1 183/15/1 184/16/1
f 185/5/1 186/6/1 187/7/1 188/8/1
f 189/1/1 190/2/1 191/3/1 192/4/1
f 193/17/1 194/18/1 195/19/1 196/20/1
f 197/21/1 198/22/1 199/23/1 200/24/1
f 201/9/1 202/10/1 203/11/1 204/12/1
f 205/13/1 206/14/1 207/15/1 208/16/1
f 209/5/1 210/6/1 211/7/1 212/8/1
f 213/9/1 214/10/1 215/11/1 216/12/1
f 217/13/1 218/14/1 219/15/1 220/16/1
f 221/17/1 222/18/1 223/19/1 224/20/1
f 225/21/1 226/22/1 227/23/1 228/24/1
f 229/1/1 230/2/1 231/3/1 232/4/1
f 233/17/1 234/18/1 235/19/1 236/20/1
f 237/21/1 238/22/1 239/23/1 240/24/1
f 241/9/1 242/10/1 243/11/1 244/12/1
f 245/13/1 246/14/1 247/15/1 248/16/1
f 249/21/1 250/22/1 251/23/1 252/24/1
f 253/9/1 254/10/1 255/11/1 256/12/1
f 257/13/1 258/14/1 259/15/1 260/16/1
f 261/5/1 262/6/1 263/7/1 264/8/1
f 265/9/1 266/10/1 267/11/1 268/12/1
f 269/13/1 270/14/1 271/15/1 272/16/1
f 273/17/1 274/18/1 275/19/1 276/20/1
f 277/21/1 278/22/1 279/23/1 280/24/1
f 281/1/1 282/2/1 283/3/1 284/4/1
f 285/17/1 286/18/1 287/19/1 288/20/1
f 289/21/1 290/22/1 291/23/1 292/24/1
f 293/9/1 294/10/1 295/11/1 296/12/1
f 297/13/1 298/14/1 299/15/1 300/16/1
f 301/5/1 302/6/1 303/7/1 304/8/1
f 305/1/1 306/2/1 307/3/1 308/4/1
f 309/17/1 310/18/1 311/19/1 312/20/1
f 313/21/1 314/22/1 315/23/1 316/24/1
f 317/1/1 318/2/1 319/3/1 320/4/1
f 321/5/1 322/6/1 323/7/1 324/8/1
f 325/9/1 326/10/1 327/11/1 328/12/1
f 329/17/1 330/18/1 331/19/1 332/20/1
f 333/21/1 334/22/1 335/23/1 336/24/1
f 337/1/1 338/2/1 339/3/1 340/4/1
f 341/5/1 342/6/1 343/7/1 344/8/1
f 345/9/1 346/10/1 347/11/1 348/12/1
f 349/13/1 350/14/1 351/15/1 352/16/1
f 353/5/1 354/6/1 355/7/1 356/8/1
f 357/1/1 358/2/1 359/3/1 360/4/1
f 361/17/1 362/18/1 363/19/1 364/20/1
f 365/21/1 366/22/1 367/23/1 368/24/1
f 369/1/1 370/2/1 371/3/1 372/4/1
f 373/5/1 374/6/1 375/7/1 376/8/1
f 377/1/1 378/2/1 379/3/1 380/4/1
f 381/5/1 382/6/1 383/7/1 384/8/1
f 385/1/1 386/2/1 387/3/1 388/4/1
f 389/5/1 390/6/1 391/7/1 392/8/1
f 393/1/1 394/2/1 395/3/1 396/4/1
f 397/5/1 398/6/1 399/7/1 400/8/1
f 401/1/1 402/2/1 403/3/1 404/4/1
f 405/5/1 406/6/1 407/7/1 408/8/1
f 409/1/1 410/2/1 411/3/1 412/4/1
f 413/5/1 414/6/1 415/7/1 416/8/1
f 417/1/1 418/2/1 419/3/1 420/4/1
f 421/5/1 422/6/1 423/7/1 424/8/1
f 425/1/1 426/2/1 427/3/1 428/4/1
f 429/5/1 430/6/1 431/7/1 432/8/1
f 433/1/1 434/2/1 435/3/1 436/4/1
f 437/5/1 438/6/1 439/7/1 440/8/1
f 441/1/1 442/2/1 443/3/1 444/4/1
f 445/5/1 446/6/1 447/7/1 448/8/1
f 449/1/1 450/2/1 451/3/1 452/4/1
f 453/5/1 454/6/1 455/7/1 456/8/1
f 457/1/1 458/2/1 459/3/1 460/4/1
f 461/5/1 462/6/1 463/7/1 464/8/1
f 465/1/1 466/2/1 467/3/1 468/4/1
f 469/5/1 470/6/1 471/7/1 472/8/1
f 473/1/1 474/2/1 475/3/1 476/4/1
f 477/5/1 478/6/1 479/7/1 480/8/1
f 481/1/1 482/2/1 483/3/1 484/4/1
f 485/5/1 486/6/1 487/7/1 488/8/1
f 489/1/1 490/2/1 491/3/1 492/4/1
f 493/5/1 494/6/1 495/7/1 496/8/1
f 497/1/1 498/2/1 499/3/1 500/4/1
f 501/5/1 502/6/1 503/7/1 504/8/1
f 505/1/1 506/2/1 507/3/1 508/4/1
f 509/5/1 510/6/1 511/7/1 512/8/1

