# Tiled2Unity generated file. Do not modify by hand.
# Wavefront file for 'demo_map_mesh_0018.obj'

# Vertices (Count = 64)
v -0.8 -2.72 0
v -0.96 -2.72 0
v -0.96 -2.56 0
v -0.8 -2.56 0
v -0.96 -2.72 0
v -1.12 -2.72 0
v -1.12 -2.56 0
v -0.96 -2.56 0
v -1.12 -2.72 0
v -1.28 -2.72 0
v -1.28 -2.56 0
v -1.12 -2.56 0
v -1.28 -2.72 0
v -1.44 -2.72 0
v -1.44 -2.56 0
v -1.28 -2.56 0
v -0.8 -2.88 0
v -0.96 -2.88 0
v -0.96 -2.72 0
v -0.8 -2.72 0
v -0.96 -2.88 0
v -1.12 -2.88 0
v -1.12 -2.72 0
v -0.96 -2.72 0
v -1.12 -2.88 0
v -1.28 -2.88 0
v -1.28 -2.72 0
v -1.12 -2.72 0
v -1.28 -2.88 0
v -1.44 -2.88 0
v -1.44 -2.72 0
v -1.28 -2.72 0
v -0.8 -3.04 0
v -0.96 -3.04 0
v -0.96 -2.88 0
v -0.8 -2.88 0
v -0.96 -3.04 0
v -1.12 -3.04 0
v -1.12 -2.88 0
v -0.96 -2.88 0
v -1.12 -3.04 0
v -1.28 -3.04 0
v -1.28 -2.88 0
v -1.12 -2.88 0
v -1.28 -3.04 0
v -1.44 -3.04 0
v -1.44 -2.88 0
v -1.28 -2.88 0
v -0.8 -3.2 0
v -0.96 -3.2 0
v -0.96 -3.04 0
v -0.8 -3.04 0
v -0.96 -3.2 0
v -1.12 -3.2 0
v -1.12 -3.04 0
v -0.96 -3.04 0
v -1.12 -3.2 0
v -1.28 -3.2 0
v -1.28 -3.04 0
v -1.12 -3.04 0
v -1.28 -3.2 0
v -1.44 -3.2 0
v -1.44 -3.04 0
v -1.28 -3.04 0

# Texture cooridinates (Count = 64)
vt 0.3279915 0.8356482
vt 0.3450855 0.8356482
vt 0.3450855 0.8726852
vt 0.3279915 0.8726852
vt 0.3472222 0.8356482
vt 0.3643162 0.8356482
vt 0.3643162 0.8726852
vt 0.3472222 0.8726852
vt 0.366453 0.8356482
vt 0.383547 0.8356482
vt 0.383547 0.8726852
vt 0.366453 0.8726852
vt 0.3856838 0.8356482
vt 0.4027778 0.8356482
vt 0.4027778 0.8726852
vt 0.3856838 0.8726852
vt 0.3279915 0.7939815
vt 0.3450855 0.7939815
vt 0.3450855 0.8310185
vt 0.3279915 0.8310185
vt 0.3472222 0.7939815
vt 0.3643162 0.7939815
vt 0.3643162 0.8310185
vt 0.3472222 0.8310185
vt 0.366453 0.7939815
vt 0.383547 0.7939815
vt 0.383547 0.8310185
vt 0.366453 0.8310185
vt 0.3856838 0.7939815
vt 0.4027778 0.7939815
vt 0.4027778 0.8310185
vt 0.3856838 0.8310185
vt 0.3279915 0.7523148
vt 0.3450855 0.7523148
vt 0.3450855 0.7893518
vt 0.3279915 0.7893518
vt 0.3472222 0.7523148
vt 0.3643162 0.7523148
vt 0.3643162 0.7893518
vt 0.3472222 0.7893518
vt 0.366453 0.7523148
vt 0.383547 0.7523148
vt 0.383547 0.7893518
vt 0.366453 0.7893518
vt 0.3856838 0.7523148
vt 0.4027778 0.7523148
vt 0.4027778 0.7893518
vt 0.3856838 0.7893518
vt 0.3279915 0.7106482
vt 0.3450855 0.7106482
vt 0.3450855 0.7476852
vt 0.3279915 0.7476852
vt 0.3472222 0.7106482
vt 0.3643162 0.7106482
vt 0.3643162 0.7476852
vt 0.3472222 0.7476852
vt 0.366453 0.7106482
vt 0.383547 0.7106482
vt 0.383547 0.7476852
vt 0.366453 0.7476852
vt 0.3856838 0.7106482
vt 0.4027778 0.7106482
vt 0.4027778 0.7476852
vt 0.3856838 0.7476852

# Normal
vn 0 0 -1

# Mesh description
g demo_map_mesh_0018

# Faces
f 1/1/1 2/2/1 3/3/1 4/4/1
f 5/5/1 6/6/1 7/7/1 8/8/1
f 9/9/1 10/10/1 11/11/1 12/12/1
f 13/13/1 14/14/1 15/15/1 16/16/1
f 17/17/1 18/18/1 19/19/1 20/20/1
f 21/21/1 22/22/1 23/23/1 24/24/1
f 25/25/1 26/26/1 27/27/1 28/28/1
f 29/29/1 30/30/1 31/31/1 32/32/1
f 33/33/1 34/34/1 35/35/1 36/36/1
f 37/37/1 38/38/1 39/39/1 40/40/1
f 41/41/1 42/42/1 43/43/1 44/44/1
f 45/45/1 46/46/1 47/47/1 48/48/1
f 49/49/1 50/50/1 51/51/1 52/52/1
f 53/53/1 54/54/1 55/55/1 56/56/1
f 57/57/1 58/58/1 59/59/1 60/60/1
f 61/61/1 62/62/1 63/63/1 64/64/1

