# Tiled2Unity generated file. Do not modify by hand.
# Wavefront file for 'demo_map_mesh_0004.obj'

# Vertices (Count = 24)
v -3.04 -0.32 0
v -3.2 -0.32 0
v -3.2 -0.16 0
v -3.04 -0.16 0
v -3.2 -0.32 0
v -3.36 -0.32 0
v -3.36 -0.16 0
v -3.2 -0.16 0
v -3.36 -0.32 0
v -3.52 -0.32 0
v -3.52 -0.16 0
v -3.36 -0.16 0
v -3.04 -0.48 0
v -3.2 -0.48 0
v -3.2 -0.32 0
v -3.04 -0.32 0
v -3.2 -0.48 0
v -3.36 -0.48 0
v -3.36 -0.32 0
v -3.2 -0.32 0
v -3.36 -0.48 0
v -3.52 -0.48 0
v -3.52 -0.32 0
v -3.36 -0.32 0

# Texture cooridinates (Count = 24)
vt 0.3472222 0.9189815
vt 0.3643162 0.9189815
vt 0.3643162 0.9560185
vt 0.3472222 0.9560185
vt 0.366453 0.9189815
vt 0.383547 0.9189815
vt 0.383547 0.9560185
vt 0.366453 0.9560185
vt 0.3856838 0.9189815
vt 0.4027778 0.9189815
vt 0.4027778 0.9560185
vt 0.3856838 0.9560185
vt 0.3472222 0.8773148
vt 0.3643162 0.8773148
vt 0.3643162 0.9143518
vt 0.3472222 0.9143518
vt 0.366453 0.8773148
vt 0.383547 0.8773148
vt 0.383547 0.9143518
vt 0.366453 0.9143518
vt 0.3856838 0.8773148
vt 0.4027778 0.8773148
vt 0.4027778 0.9143518
vt 0.3856838 0.9143518

# Normal
vn 0 0 -1

# Mesh description
g demo_map_mesh_0004

# Faces
f 1/1/1 2/2/1 3/3/1 4/4/1
f 5/5/1 6/6/1 7/7/1 8/8/1
f 9/9/1 10/10/1 11/11/1 12/12/1
f 13/13/1 14/14/1 15/15/1 16/16/1
f 17/17/1 18/18/1 19/19/1 20/20/1
f 21/21/1 22/22/1 23/23/1 24/24/1

