# Tiled2Unity generated file. Do not modify by hand.
# Wavefront file for 'Main-Camp-Upstairs_mesh_0022.obj'

# Vertices (Count = 16)
v -9.599999 -4.32 0
v -10.08 -4.32 0
v -10.08 -3.84 0
v -9.599999 -3.84 0
v -10.08 -4.32 0
v -10.56 -4.32 0
v -10.56 -3.84 0
v -10.08 -3.84 0
v -9.599999 -4.8 0
v -10.08 -4.8 0
v -10.08 -4.32 0
v -9.599999 -4.32 0
v -10.08 -4.8 0
v -10.56 -4.8 0
v -10.56 -4.32 0
v -10.08 -4.32 0

# Texture cooridinates (Count = 16)
vt 0.50125 0.87625
vt 0.56125 0.87625
vt 0.56125 0.93625
vt 0.50125 0.93625
vt 0.56375 0.87625
vt 0.62375 0.87625
vt 0.62375 0.93625
vt 0.56375 0.93625
vt 0.50125 0.81375
vt 0.56125 0.81375
vt 0.56125 0.87375
vt 0.50125 0.87375
vt 0.56375 0.81375
vt 0.62375 0.81375
vt 0.62375 0.87375
vt 0.56375 0.87375

# Normal
vn 0 0 -1

# Mesh description
g Main-Camp-Upstairs_mesh_0022

# Faces
f 1/1/1 2/2/1 3/3/1 4/4/1
f 5/5/1 6/6/1 7/7/1 8/8/1
f 9/9/1 10/10/1 11/11/1 12/12/1
f 13/13/1 14/14/1 15/15/1 16/16/1

