# Tiled2Unity generated file. Do not modify by hand.
# Wavefront file for 'Main-Camp-Upstairs_mesh_0008.obj'

# Vertices (Count = 80)
v -10.08 -1.92 0
v -10.56 -1.92 0
v -10.56 -1.44 0
v -10.08 -1.44 0
v -0.48 -3.36 0
v -0.96 -3.36 0
v -0.96 -2.88 0
v -0.48 -2.88 0
v -0.96 -3.36 0
v -1.44 -3.36 0
v -1.44 -2.88 0
v -0.96 -2.88 0
v -0.48 -3.84 0
v -0.96 -3.84 0
v -0.96 -3.36 0
v -0.48 -3.36 0
v -0.96 -3.84 0
v -1.44 -3.84 0
v -1.44 -3.36 0
v -0.96 -3.36 0
v -1.44 -3.84 0
v -1.92 -3.84 0
v -1.92 -3.36 0
v -1.44 -3.36 0
v -1.92 -3.84 0
v -2.4 -3.84 0
v -2.4 -3.36 0
v -1.92 -3.36 0
v -2.4 -3.84 0
v -2.88 -3.84 0
v -2.88 -3.36 0
v -2.4 -3.36 0
v -5.76 -3.84 0
v -6.24 -3.84 0
v -6.24 -3.36 0
v -5.76 -3.36 0
v -0.48 -4.32 0
v -0.96 -4.32 0
v -0.96 -3.84 0
v -0.48 -3.84 0
v -0.96 -4.32 0
v -1.44 -4.32 0
v -1.44 -3.84 0
v -0.96 -3.84 0
v -1.44 -4.32 0
v -1.92 -4.32 0
v -1.92 -3.84 0
v -1.44 -3.84 0
v -1.92 -4.32 0
v -2.4 -4.32 0
v -2.4 -3.84 0
v -1.92 -3.84 0
v -2.4 -4.32 0
v -2.88 -4.32 0
v -2.88 -3.84 0
v -2.4 -3.84 0
v -5.76 -4.32 0
v -6.24 -4.32 0
v -6.24 -3.84 0
v -5.76 -3.84 0
v -4.8 -4.8 0
v -5.28 -4.8 0
v -5.28 -4.32 0
v -4.8 -4.32 0
v -8.16 -7.2 0
v -8.639999 -7.2 0
v -8.639999 -6.72 0
v -8.16 -6.72 0
v -8.639999 -7.2 0
v -9.12 -7.2 0
v -9.12 -6.72 0
v -8.639999 -6.72 0
v -9.599999 -7.2 0
v -10.08 -7.2 0
v -10.08 -6.72 0
v -9.599999 -6.72 0
v -10.08 -7.2 0
v -10.56 -7.2 0
v -10.56 -6.72 0
v -10.08 -6.72 0

# Texture cooridinates (Count = 72)
vt 0.87625 0.25125
vt 0.93625 0.25125
vt 0.93625 0.31125
vt 0.87625 0.31125
vt 0.37625 0.93875
vt 0.43625 0.93875
vt 0.43625 0.99875
vt 0.37625 0.99875
vt 0.43875 0.56375
vt 0.49875 0.56375
vt 0.49875 0.62375
vt 0.43875 0.62375
vt 0.37625 0.50125
vt 0.43625 0.50125
vt 0.43625 0.56125
vt 0.37625 0.56125
vt 0.43875 0.50125
vt 0.49875 0.50125
vt 0.49875 0.56125
vt 0.43875 0.56125
vt 0.06375 0.56375
vt 0.12375 0.56375
vt 0.12375 0.62375
vt 0.06375 0.62375
vt 0.12625 0.56375
vt 0.18625 0.56375
vt 0.18625 0.62375
vt 0.12625 0.62375
vt 0.12625 0.81375
vt 0.18625 0.81375
vt 0.18625 0.87375
vt 0.12625 0.87375
vt 0.06375 0.81375
vt 0.12375 0.81375
vt 0.12375 0.87375
vt 0.06375 0.87375
vt 0.37625 0.81375
vt 0.43625 0.81375
vt 0.43625 0.87375
vt 0.37625 0.87375
vt 0.43875 0.81375
vt 0.49875 0.81375
vt 0.49875 0.87375
vt 0.43875 0.87375
vt 0.06375 0.87625
vt 0.12375 0.87625
vt 0.12375 0.93625
vt 0.06375 0.93625
vt 0.12625 0.87625
vt 0.18625 0.87625
vt 0.18625 0.93625
vt 0.12625 0.93625
vt 0.12625 0.75125
vt 0.18625 0.75125
vt 0.18625 0.81125
vt 0.12625 0.81125
vt 0.06375 0.75125
vt 0.12375 0.75125
vt 0.12375 0.81125
vt 0.06375 0.81125
vt 0.87625 0.31375
vt 0.93625 0.31375
vt 0.93625 0.37375
vt 0.87625 0.37375
vt 0.37625 0.75125
vt 0.43625 0.75125
vt 0.43625 0.81125
vt 0.37625 0.81125
vt 0.43875 0.37625
vt 0.49875 0.37625
vt 0.49875 0.43625
vt 0.43875 0.43625

# Normal
vn 0 0 -1

# Mesh description
g Main-Camp-Upstairs_mesh_0008

# Faces
f 1/1/1 2/2/1 3/3/1 4/4/1
f 5/5/1 6/6/1 7/7/1 8/8/1
f 9/9/1 10/10/1 11/11/1 12/12/1
f 13/13/1 14/14/1 15/15/1 16/16/1
f 17/17/1 18/18/1 19/19/1 20/20/1
f 21/21/1 22/22/1 23/23/1 24/24/1
f 25/25/1 26/26/1 27/27/1 28/28/1
f 29/29/1 30/30/1 31/31/1 32/32/1
f 33/33/1 34/34/1 35/35/1 36/36/1
f 37/37/1 38/38/1 39/39/1 40/40/1
f 41/41/1 42/42/1 43/43/1 44/44/1
f 45/45/1 46/46/1 47/47/1 48/48/1
f 49/49/1 50/50/1 51/51/1 52/52/1
f 53/53/1 54/54/1 55/55/1 56/56/1
f 57/57/1 58/58/1 59/59/1 60/60/1
f 61/61/1 62/62/1 63/63/1 64/64/1
f 65/5/1 66/6/1 67/7/1 68/8/1
f 69/9/1 70/10/1 71/11/1 72/12/1
f 73/65/1 74/66/1 75/67/1 76/68/1
f 77/69/1 78/70/1 79/71/1 80/72/1

