# Tiled2Unity generated file. Do not modify by hand.
# Wavefront file for 'Main-Camp-Upstairs_mesh_0019.obj'

# Vertices (Count = 16)
v -6.72 -6.72 0
v -7.2 -6.72 0
v -7.2 -6.24 0
v -6.72 -6.24 0
v -7.2 -6.72 0
v -7.68 -6.72 0
v -7.68 -6.24 0
v -7.2 -6.24 0
v -6.72 -7.2 0
v -7.2 -7.2 0
v -7.2 -6.72 0
v -6.72 -6.72 0
v -7.2 -7.2 0
v -7.68 -7.2 0
v -7.68 -6.72 0
v -7.2 -6.72 0

# Texture cooridinates (Count = 16)
vt 0.75125 0.43875
vt 0.81125 0.43875
vt 0.81125 0.49875
vt 0.75125 0.49875
vt 0.81375 0.43875
vt 0.87375 0.43875
vt 0.87375 0.49875
vt 0.81375 0.49875
vt 0.75125 0.37625
vt 0.81125 0.37625
vt 0.81125 0.43625
vt 0.75125 0.43625
vt 0.81375 0.37625
vt 0.87375 0.37625
vt 0.87375 0.43625
vt 0.81375 0.43625

# Normal
vn 0 0 -1

# Mesh description
g Main-Camp-Upstairs_mesh_0019

# Faces
f 1/1/1 2/2/1 3/3/1 4/4/1
f 5/5/1 6/6/1 7/7/1 8/8/1
f 9/9/1 10/10/1 11/11/1 12/12/1
f 13/13/1 14/14/1 15/15/1 16/16/1

