# Tiled2Unity generated file. Do not modify by hand.
# Wavefront file for 'Main-Camp-Upstairs_mesh_0011.obj'

# Vertices (Count = 12)
v -4.8 -6.24 0
v -5.28 -6.24 0
v -5.28 -5.76 0
v -4.8 -5.76 0
v -4.8 -6.72 0
v -5.28 -6.72 0
v -5.28 -6.24 0
v -4.8 -6.24 0
v -4.8 -7.2 0
v -5.28 -7.2 0
v -5.28 -6.72 0
v -4.8 -6.72 0

# Texture cooridinates (Count = 12)
vt 0.18875 0.68875
vt 0.24875 0.68875
vt 0.24875 0.74875
vt 0.18875 0.74875
vt 0.18875 0.62625
vt 0.24875 0.62625
vt 0.24875 0.68625
vt 0.18875 0.68625
vt 0.18875 0.56375
vt 0.24875 0.56375
vt 0.24875 0.62375
vt 0.18875 0.62375

# Normal
vn 0 0 -1

# Mesh description
g Main-Camp-Upstairs_mesh_0011

# Faces
f 1/1/1 2/2/1 3/3/1 4/4/1
f 5/5/1 6/6/1 7/7/1 8/8/1
f 9/9/1 10/10/1 11/11/1 12/12/1

