# Tiled2Unity generated file. Do not modify by hand.
# Wavefront file for 'Main-Camp-Upstairs_mesh_0014.obj'

# Vertices (Count = 8)
v -2.88 -6.24 0
v -3.36 -6.24 0
v -3.36 -5.76 0
v -2.88 -5.76 0
v -2.88 -6.72 0
v -3.36 -6.72 0
v -3.36 -6.24 0
v -2.88 -6.24 0

# Texture cooridinates (Count = 8)
vt 0.06375 0.68875
vt 0.12375 0.68875
vt 0.12375 0.74875
vt 0.06375 0.74875
vt 0.06375 0.62625
vt 0.12375 0.62625
vt 0.12375 0.68625
vt 0.06375 0.68625

# Normal
vn 0 0 -1

# Mesh description
g Main-Camp-Upstairs_mesh_0014

# Faces
f 1/1/1 2/2/1 3/3/1 4/4/1
f 5/5/1 6/6/1 7/7/1 8/8/1

