# Tiled2Unity generated file. Do not modify by hand.
# Wavefront file for 'Main-Camp-Upstairs_mesh_0025.obj'

# Vertices (Count = 196)
v -2.4 -2.4 0
v -2.88 -2.4 0
v -2.88 -1.92 0
v -2.4 -1.92 0
v 0 -2.88 0
v -0.48 -2.88 0
v -0.48 -2.4 0
v 0 -2.4 0
v -0.48 -2.88 0
v -0.96 -2.88 0
v -0.96 -2.4 0
v -0.48 -2.4 0
v -0.96 -2.88 0
v -1.44 -2.88 0
v -1.44 -2.4 0
v -0.96 -2.4 0
v -1.44 -2.88 0
v -1.92 -2.88 0
v -1.92 -2.4 0
v -1.44 -2.4 0
v -1.92 -2.88 0
v -2.4 -2.88 0
v -2.4 -2.4 0
v -1.92 -2.4 0
v -2.4 -2.88 0
v -2.88 -2.88 0
v -2.88 -2.4 0
v -2.4 -2.4 0
v -2.88 -2.88 0
v -3.36 -2.88 0
v -3.36 -2.4 0
v -2.88 -2.4 0
v -3.36 -2.88 0
v -3.84 -2.88 0
v -3.84 -2.4 0
v -3.36 -2.4 0
v -3.84 -2.88 0
v -4.32 -2.88 0
v -4.32 -2.4 0
v -3.84 -2.4 0
v -4.32 -2.88 0
v -4.8 -2.88 0
v -4.8 -2.4 0
v -4.32 -2.4 0
v -5.28 -2.88 0
v -5.76 -2.88 0
v -5.76 -2.4 0
v -5.28 -2.4 0
v -5.76 -2.88 0
v -6.24 -2.88 0
v -6.24 -2.4 0
v -5.76 -2.4 0
v -6.24 -2.88 0
v -6.72 -2.88 0
v -6.72 -2.4 0
v -6.24 -2.4 0
v -6.72 -2.88 0
v -7.2 -2.88 0
v -7.2 -2.4 0
v -6.72 -2.4 0
v -7.2 -2.88 0
v -7.68 -2.88 0
v -7.68 -2.4 0
v -7.2 -2.4 0
v -7.68 -2.88 0
v -8.16 -2.88 0
v -8.16 -2.4 0
v -7.68 -2.4 0
v -8.16 -2.88 0
v -8.639999 -2.88 0
v -8.639999 -2.4 0
v -8.16 -2.4 0
v -8.639999 -2.88 0
v -9.12 -2.88 0
v -9.12 -2.4 0
v -8.639999 -2.4 0
v -9.12 -2.88 0
v -9.599999 -2.88 0
v -9.599999 -2.4 0
v -9.12 -2.4 0
v -9.599999 -2.88 0
v -10.08 -2.88 0
v -10.08 -2.4 0
v -9.599999 -2.4 0
v -10.08 -2.88 0
v -10.56 -2.88 0
v -10.56 -2.4 0
v -10.08 -2.4 0
v -10.56 -2.88 0
v -11.04 -2.88 0
v -11.04 -2.4 0
v -10.56 -2.4 0
v -4.32 -3.36 0
v -4.8 -3.36 0
v -4.8 -2.88 0
v -4.32 -2.88 0
v -4.8 -3.36 0
v -5.28 -3.36 0
v -5.28 -2.88 0
v -4.8 -2.88 0
v -5.28 -3.36 0
v -5.76 -3.36 0
v -5.76 -2.88 0
v -5.28 -2.88 0
v 0 -7.68 0
v -0.48 -7.68 0
v -0.48 -7.2 0
v 0 -7.2 0
v -0.48 -7.68 0
v -0.96 -7.68 0
v -0.96 -7.2 0
v -0.48 -7.2 0
v -0.96 -7.68 0
v -1.44 -7.68 0
v -1.44 -7.2 0
v -0.96 -7.2 0
v -1.44 -7.68 0
v -1.92 -7.68 0
v -1.92 -7.2 0
v -1.44 -7.2 0
v -1.92 -7.68 0
v -2.4 -7.68 0
v -2.4 -7.2 0
v -1.92 -7.2 0
v -2.4 -7.68 0
v -2.88 -7.68 0
v -2.88 -7.2 0
v -2.4 -7.2 0
v -2.88 -7.68 0
v -3.36 -7.68 0
v -3.36 -7.2 0
v -2.88 -7.2 0
v -3.36 -7.68 0
v -3.84 -7.68 0
v -3.84 -7.2 0
v -3.36 -7.2 0
v -3.84 -7.68 0
v -4.32 -7.68 0
v -4.32 -7.2 0
v -3.84 -7.2 0
v -4.32 -7.68 0
v -4.8 -7.68 0
v -4.8 -7.2 0
v -4.32 -7.2 0
v -4.8 -7.68 0
v -5.28 -7.68 0
v -5.28 -7.2 0
v -4.8 -7.2 0
v -5.28 -7.68 0
v -5.76 -7.68 0
v -5.76 -7.2 0
v -5.28 -7.2 0
v -5.76 -7.68 0
v -6.24 -7.68 0
v -6.24 -7.2 0
v -5.76 -7.2 0
v -6.24 -7.68 0
v -6.72 -7.68 0
v -6.72 -7.2 0
v -6.24 -7.2 0
v -6.72 -7.68 0
v -7.2 -7.68 0
v -7.2 -7.2 0
v -6.72 -7.2 0
v -7.2 -7.68 0
v -7.68 -7.68 0
v -7.68 -7.2 0
v -7.2 -7.2 0
v -7.68 -7.68 0
v -8.16 -7.68 0
v -8.16 -7.2 0
v -7.68 -7.2 0
v -8.16 -7.68 0
v -8.639999 -7.68 0
v -8.639999 -7.2 0
v -8.16 -7.2 0
v -8.639999 -7.68 0
v -9.12 -7.68 0
v -9.12 -7.2 0
v -8.639999 -7.2 0
v -9.12 -7.68 0
v -9.599999 -7.68 0
v -9.599999 -7.2 0
v -9.12 -7.2 0
v -9.599999 -7.68 0
v -10.08 -7.68 0
v -10.08 -7.2 0
v -9.599999 -7.2 0
v -10.08 -7.68 0
v -10.56 -7.68 0
v -10.56 -7.2 0
v -10.08 -7.2 0
v -10.56 -7.68 0
v -11.04 -7.68 0
v -11.04 -7.2 0
v -10.56 -7.2 0

# Texture cooridinates (Count = 102)
vt 0.3 0.65
vt 0.3333333 0.65
vt 0.3333333 0.7
vt 0.3 0.7
vt 0.1333333 0.6
vt 0.1666667 0.6
vt 0.1666667 0.65
vt 0.1333333 0.65
vt 0.2 0.6
vt 0.2 0.65
vt 0.2333333 0.6
vt 0.2333333 0.65
vt 0.2666667 0.6
vt 0.2666667 0.65
vt 0.3 0.6
vt 0.3333333 0.6
vt 0.3666667 0.6
vt 0.3666667 0.65
vt 0.4 0.6
vt 0.4 0.65
vt 0.4333333 0.6
vt 0.4333333 0.65
vt 0.4666667 0.6
vt 0.4666667 0.65
vt 0.5 0.6
vt 0.5333334 0.6
vt 0.5333334 0.65
vt 0.5 0.65
vt 0.5666667 0.6
vt 0.5666667 0.65
vt 0.6 0.6
vt 0.6 0.65
vt 0.6333333 0.6
vt 0.6333333 0.65
vt 0.6666667 0.6
vt 0.6666667 0.65
vt 0.7 0.6
vt 0.7 0.65
vt 0.7333333 0.6
vt 0.7333333 0.65
vt 0.7666667 0.6
vt 0.7666667 0.65
vt 0.8 0.6
vt 0.8 0.65
vt 0.8333333 0.6
vt 0.8333333 0.65
vt 0.8666667 0.6
vt 0.8666667 0.65
vt 0.9 0.6
vt 0.9 0.65
vt 0.4333333 0.55
vt 0.4666667 0.55
vt 0.5 0.55
vt 0.5333334 0.55
vt 0.1333333 0.1
vt 0.1666667 0.1
vt 0.1666667 0.15
vt 0.1333333 0.15
vt 0.2 0.1
vt 0.2 0.15
vt 0.2333333 0.1
vt 0.2333333 0.15
vt 0.2666667 0.1
vt 0.2666667 0.15
vt 0.3 0.1
vt 0.3 0.15
vt 0.3333333 0.1
vt 0.3333333 0.15
vt 0.3666667 0.1
vt 0.3666667 0.15
vt 0.4 0.1
vt 0.4 0.15
vt 0.4333333 0.1
vt 0.4333333 0.15
vt 0.4666667 0.1
vt 0.4666667 0.15
vt 0.5 0.1
vt 0.5 0.15
vt 0.5333334 0.1
vt 0.5333334 0.15
vt 0.5666667 0.1
vt 0.5666667 0.15
vt 0.6 0.1
vt 0.6 0.15
vt 0.6333333 0.1
vt 0.6333333 0.15
vt 0.6666667 0.1
vt 0.6666667 0.15
vt 0.7 0.1
vt 0.7 0.15
vt 0.7333333 0.1
vt 0.7333333 0.15
vt 0.7666667 0.1
vt 0.7666667 0.15
vt 0.8 0.1
vt 0.8 0.15
vt 0.8333333 0.1
vt 0.8333333 0.15
vt 0.8666667 0.1
vt 0.8666667 0.15
vt 0.9 0.1
vt 0.9 0.15

# Normal
vn 0 0 -1

# Mesh description
g Main-Camp-Upstairs_mesh_0025

# Faces
f 1/1/1 2/2/1 3/3/1 4/4/1
f 5/5/1 6/6/1 7/7/1 8/8/1
f 9/6/1 10/9/1 11/10/1 12/7/1
f 13/9/1 14/11/1 15/12/1 16/10/1
f 17/11/1 18/13/1 19/14/1 20/12/1
f 21/13/1 22/15/1 23/1/1 24/14/1
f 25/15/1 26/16/1 27/2/1 28/1/1
f 29/16/1 30/17/1 31/18/1 32/2/1
f 33/17/1 34/19/1 35/20/1 36/18/1
f 37/19/1 38/21/1 39/22/1 40/20/1
f 41/21/1 42/23/1 43/24/1 44/22/1
f 45/25/1 46/26/1 47/27/1 48/28/1
f 49/26/1 50/29/1 51/30/1 52/27/1
f 53/29/1 54/31/1 55/32/1 56/30/1
f 57/31/1 58/33/1 59/34/1 60/32/1
f 61/33/1 62/35/1 63/36/1 64/34/1
f 65/35/1 66/37/1 67/38/1 68/36/1
f 69/37/1 70/39/1 71/40/1 72/38/1
f 73/39/1 74/41/1 75/42/1 76/40/1
f 77/41/1 78/43/1 79/44/1 80/42/1
f 81/43/1 82/45/1 83/46/1 84/44/1
f 85/45/1 86/47/1 87/48/1 88/46/1
f 89/47/1 90/49/1 91/50/1 92/48/1
f 93/51/1 94/52/1 95/23/1 96/21/1
f 97/52/1 98/53/1 99/25/1 100/23/1
f 101/53/1 102/54/1 103/26/1 104/25/1
f 105/55/1 106/56/1 107/57/1 108/58/1
f 109/56/1 110/59/1 111/60/1 112/57/1
f 113/59/1 114/61/1 115/62/1 116/60/1
f 117/61/1 118/63/1 119/64/1 120/62/1
f 121/63/1 122/65/1 123/66/1 124/64/1
f 125/65/1 126/67/1 127/68/1 128/66/1
f 129/67/1 130/69/1 131/70/1 132/68/1
f 133/69/1 134/71/1 135/72/1 136/70/1
f 137/71/1 138/73/1 139/74/1 140/72/1
f 141/73/1 142/75/1 143/76/1 144/74/1
f 145/75/1 146/77/1 147/78/1 148/76/1
f 149/77/1 150/79/1 151/80/1 152/78/1
f 153/79/1 154/81/1 155/82/1 156/80/1
f 157/81/1 158/83/1 159/84/1 160/82/1
f 161/83/1 162/85/1 163/86/1 164/84/1
f 165/85/1 166/87/1 167/88/1 168/86/1
f 169/87/1 170/89/1 171/90/1 172/88/1
f 173/89/1 174/91/1 175/92/1 176/90/1
f 177/91/1 178/93/1 179/94/1 180/92/1
f 181/93/1 182/95/1 183/96/1 184/94/1
f 185/95/1 186/97/1 187/98/1 188/96/1
f 189/97/1 190/99/1 191/100/1 192/98/1
f 193/99/1 194/101/1 195/102/1 196/100/1

