# Tiled2Unity generated file. Do not modify by hand.
# Wavefront file for 'Main-Camp-Upstairs_mesh_0027.obj'

# Vertices (Count = 64)
v -2.4 -1.44 0
v -2.88 -1.44 0
v -2.88 -0.96 0
v -2.4 -0.96 0
v -2.4 -2.4 0
v -2.88 -2.4 0
v -2.88 -1.92 0
v -2.4 -1.92 0
v -2.4 -2.88 0
v -2.88 -2.88 0
v -2.88 -2.4 0
v -2.4 -2.4 0
v -2.88 -2.88 0
v -3.36 -2.88 0
v -3.36 -2.4 0
v -2.88 -2.4 0
v -3.84 -2.88 0
v -4.32 -2.88 0
v -4.32 -2.4 0
v -3.84 -2.4 0
v -4.32 -2.88 0
v -4.8 -2.88 0
v -4.8 -2.4 0
v -4.32 -2.4 0
v -5.28 -2.88 0
v -5.76 -2.88 0
v -5.76 -2.4 0
v -5.28 -2.4 0
v -5.76 -2.88 0
v -6.24 -2.88 0
v -6.24 -2.4 0
v -5.76 -2.4 0
v -6.24 -2.88 0
v -6.72 -2.88 0
v -6.72 -2.4 0
v -6.24 -2.4 0
v -7.2 -2.88 0
v -7.68 -2.88 0
v -7.68 -2.4 0
v -7.2 -2.4 0
v -7.68 -2.88 0
v -8.16 -2.88 0
v -8.16 -2.4 0
v -7.68 -2.4 0
v -8.16 -2.88 0
v -8.639999 -2.88 0
v -8.639999 -2.4 0
v -8.16 -2.4 0
v -8.639999 -2.88 0
v -9.12 -2.88 0
v -9.12 -2.4 0
v -8.639999 -2.4 0
v -9.599999 -2.88 0
v -10.08 -2.88 0
v -10.08 -2.4 0
v -9.599999 -2.4 0
v -10.08 -2.88 0
v -10.56 -2.88 0
v -10.56 -2.4 0
v -10.08 -2.4 0
v -10.56 -2.88 0
v -11.04 -2.88 0
v -11.04 -2.4 0
v -10.56 -2.4 0

# Texture cooridinates (Count = 4)
vt 0 0
vt 1 0
vt 1 1
vt 0 1

# Normal
vn 0 0 -1

# Mesh description
g Main-Camp-Upstairs_mesh_0027

# Faces
f 1/1/1 2/2/1 3/3/1 4/4/1
f 5/1/1 6/2/1 7/3/1 8/4/1
f 9/1/1 10/2/1 11/3/1 12/4/1
f 13/1/1 14/2/1 15/3/1 16/4/1
f 17/1/1 18/2/1 19/3/1 20/4/1
f 21/1/1 22/2/1 23/3/1 24/4/1
f 25/1/1 26/2/1 27/3/1 28/4/1
f 29/1/1 30/2/1 31/3/1 32/4/1
f 33/1/1 34/2/1 35/3/1 36/4/1
f 37/1/1 38/2/1 39/3/1 40/4/1
f 41/1/1 42/2/1 43/3/1 44/4/1
f 45/1/1 46/2/1 47/3/1 48/4/1
f 49/1/1 50/2/1 51/3/1 52/4/1
f 53/1/1 54/2/1 55/3/1 56/4/1
f 57/1/1 58/2/1 59/3/1 60/4/1
f 61/1/1 62/2/1 63/3/1 64/4/1

