# Tiled2Unity generated file. Do not modify by hand.
# Wavefront file for 'Main-Camp-Upstairs_mesh_0006.obj'

# Vertices (Count = 16)
v -0.48 -1.44 0
v -0.96 -1.44 0
v -0.96 -0.96 0
v -0.48 -0.96 0
v -1.44 -1.44 0
v -1.92 -1.44 0
v -1.92 -0.96 0
v -1.44 -0.96 0
v -0.48 -1.92 0
v -0.96 -1.92 0
v -0.96 -1.44 0
v -0.48 -1.44 0
v -1.44 -1.92 0
v -1.92 -1.92 0
v -1.92 -1.44 0
v -1.44 -1.44 0

# Texture cooridinates (Count = 16)
vt 0.81375 0.06375003
vt 0.87375 0.06375003
vt 0.87375 0.12375
vt 0.81375 0.12375
vt 0.81375 0.18875
vt 0.87375 0.18875
vt 0.87375 0.24875
vt 0.81375 0.24875
vt 0.81375 0.001250029
vt 0.87375 0.001250029
vt 0.87375 0.06124997
vt 0.81375 0.06124997
vt 0.81375 0.12625
vt 0.87375 0.12625
vt 0.87375 0.18625
vt 0.81375 0.18625

# Normal
vn 0 0 -1

# Mesh description
g Main-Camp-Upstairs_mesh_0006

# Faces
f 1/1/1 2/2/1 3/3/1 4/4/1
f 5/5/1 6/6/1 7/7/1 8/8/1
f 9/9/1 10/10/1 11/11/1 12/12/1
f 13/13/1 14/14/1 15/15/1 16/16/1

