# Tiled2Unity generated file. Do not modify by hand.
# Wavefront file for 'Main-Camp-Upstairs_mesh_0004.obj'

# Vertices (Count = 12)
v -3.36 -3.84 0
v -3.84 -3.84 0
v -3.84 -3.36 0
v -3.36 -3.36 0
v -6.72 -3.84 0
v -7.2 -3.84 0
v -7.2 -3.36 0
v -6.72 -3.36 0
v -9.12 -3.84 0
v -9.599999 -3.84 0
v -9.599999 -3.36 0
v -9.12 -3.36 0

# Texture cooridinates (Count = 4)
vt 0.62625 0.001250029
vt 0.68625 0.001250029
vt 0.68625 0.06124997
vt 0.62625 0.06124997

# Normal
vn 0 0 -1

# Mesh description
g Main-Camp-Upstairs_mesh_0004

# Faces
f 1/1/1 2/2/1 3/3/1 4/4/1
f 5/1/1 6/2/1 7/3/1 8/4/1
f 9/1/1 10/2/1 11/3/1 12/4/1

