# Tiled2Unity generated file. Do not modify by hand.
# Wavefront file for 'Main-Camp-Upstairs_mesh_0013.obj'

# Vertices (Count = 12)
v -2.4 -5.76 0
v -2.88 -5.76 0
v -2.88 -5.28 0
v -2.4 -5.28 0
v -2.4 -6.24 0
v -2.88 -6.24 0
v -2.88 -5.76 0
v -2.4 -5.76 0
v -2.4 -6.72 0
v -2.88 -6.72 0
v -2.88 -6.24 0
v -2.4 -6.24 0

# Texture cooridinates (Count = 12)
vt 0.43875 0.25125
vt 0.49875 0.25125
vt 0.49875 0.31125
vt 0.43875 0.31125
vt 0.43875 0.18875
vt 0.49875 0.18875
vt 0.49875 0.24875
vt 0.43875 0.24875
vt 0.43875 0.12625
vt 0.49875 0.12625
vt 0.49875 0.18625
vt 0.43875 0.18625

# Normal
vn 0 0 -1

# Mesh description
g Main-Camp-Upstairs_mesh_0013

# Faces
f 1/1/1 2/2/1 3/3/1 4/4/1
f 5/5/1 6/6/1 7/7/1 8/8/1
f 9/9/1 10/10/1 11/11/1 12/12/1

