# Tiled2Unity generated file. Do not modify by hand.
# Wavefront file for 'demo_map-2_mesh_0022.obj'

# Vertices (Count = 788)
v -5.76 -0.16 0
v -5.92 -0.16 0
v -5.92 0 0
v -5.76 0 0
v -5.92 -0.16 0
v -6.08 -0.16 0
v -6.08 0 0
v -5.92 0 0
v -6.08 -0.16 0
v -6.24 -0.16 0
v -6.24 0 0
v -6.08 0 0
v -6.24 -0.16 0
v -6.4 -0.16 0
v -6.4 0 0
v -6.24 0 0
v -6.4 -0.16 0
v -6.56 -0.16 0
v -6.56 0 0
v -6.4 0 0
v -6.56 -0.16 0
v -6.72 -0.16 0
v -6.72 0 0
v -6.56 0 0
v -3.2 -0.32 0
v -3.36 -0.32 0
v -3.36 -0.16 0
v -3.2 -0.16 0
v -3.36 -0.32 0
v -3.52 -0.32 0
v -3.52 -0.16 0
v -3.36 -0.16 0
v -3.52 -0.32 0
v -3.68 -0.32 0
v -3.68 -0.16 0
v -3.52 -0.16 0
v -3.68 -0.32 0
v -3.84 -0.32 0
v -3.84 -0.16 0
v -3.68 -0.16 0
v -3.84 -0.32 0
v -4 -0.32 0
v -4 -0.16 0
v -3.84 -0.16 0
v -4 -0.32 0
v -4.16 -0.32 0
v -4.16 -0.16 0
v -4 -0.16 0
v -5.76 -0.32 0
v -5.92 -0.32 0
v -5.92 -0.16 0
v -5.76 -0.16 0
v -5.92 -0.32 0
v -6.08 -0.32 0
v -6.08 -0.16 0
v -5.92 -0.16 0
v -6.08 -0.32 0
v -6.24 -0.32 0
v -6.24 -0.16 0
v -6.08 -0.16 0
v -6.24 -0.32 0
v -6.4 -0.32 0
v -6.4 -0.16 0
v -6.24 -0.16 0
v -6.4 -0.32 0
v -6.56 -0.32 0
v -6.56 -0.16 0
v -6.4 -0.16 0
v -6.56 -0.32 0
v -6.72 -0.32 0
v -6.72 -0.16 0
v -6.56 -0.16 0
v -3.2 -0.48 0
v -3.36 -0.48 0
v -3.36 -0.32 0
v -3.2 -0.32 0
v -3.36 -0.48 0
v -3.52 -0.48 0
v -3.52 -0.32 0
v -3.36 -0.32 0
v -3.52 -0.48 0
v -3.68 -0.48 0
v -3.68 -0.32 0
v -3.52 -0.32 0
v -3.68 -0.48 0
v -3.84 -0.48 0
v -3.84 -0.32 0
v -3.68 -0.32 0
v -3.84 -0.48 0
v -4 -0.48 0
v -4 -0.32 0
v -3.84 -0.32 0
v -4 -0.48 0
v -4.16 -0.48 0
v -4.16 -0.32 0
v -4 -0.32 0
v -5.76 -0.48 0
v -5.92 -0.48 0
v -5.92 -0.32 0
v -5.76 -0.32 0
v -5.92 -0.48 0
v -6.08 -0.48 0
v -6.08 -0.32 0
v -5.92 -0.32 0
v -6.08 -0.48 0
v -6.24 -0.48 0
v -6.24 -0.32 0
v -6.08 -0.32 0
v -6.24 -0.48 0
v -6.4 -0.48 0
v -6.4 -0.32 0
v -6.24 -0.32 0
v -6.4 -0.48 0
v -6.56 -0.48 0
v -6.56 -0.32 0
v -6.4 -0.32 0
v -6.56 -0.48 0
v -6.72 -0.48 0
v -6.72 -0.32 0
v -6.56 -0.32 0
v -3.2 -0.64 0
v -3.36 -0.64 0
v -3.36 -0.48 0
v -3.2 -0.48 0
v -3.36 -0.64 0
v -3.52 -0.64 0
v -3.52 -0.48 0
v -3.36 -0.48 0
v -3.52 -0.64 0
v -3.68 -0.64 0
v -3.68 -0.48 0
v -3.52 -0.48 0
v -3.68 -0.64 0
v -3.84 -0.64 0
v -3.84 -0.48 0
v -3.68 -0.48 0
v -3.84 -0.64 0
v -4 -0.64 0
v -4 -0.48 0
v -3.84 -0.48 0
v -4 -0.64 0
v -4.16 -0.64 0
v -4.16 -0.48 0
v -4 -0.48 0
v -5.76 -0.64 0
v -5.92 -0.64 0
v -5.92 -0.48 0
v -5.76 -0.48 0
v -5.92 -0.64 0
v -6.08 -0.64 0
v -6.08 -0.48 0
v -5.92 -0.48 0
v -6.08 -0.64 0
v -6.24 -0.64 0
v -6.24 -0.48 0
v -6.08 -0.48 0
v -6.24 -0.64 0
v -6.4 -0.64 0
v -6.4 -0.48 0
v -6.24 -0.48 0
v -6.4 -0.64 0
v -6.56 -0.64 0
v -6.56 -0.48 0
v -6.4 -0.48 0
v -6.56 -0.64 0
v -6.72 -0.64 0
v -6.72 -0.48 0
v -6.56 -0.48 0
v -3.2 -0.8 0
v -3.36 -0.8 0
v -3.36 -0.64 0
v -3.2 -0.64 0
v -3.36 -0.8 0
v -3.52 -0.8 0
v -3.52 -0.64 0
v -3.36 -0.64 0
v -3.52 -0.8 0
v -3.68 -0.8 0
v -3.68 -0.64 0
v -3.52 -0.64 0
v -3.68 -0.8 0
v -3.84 -0.8 0
v -3.84 -0.64 0
v -3.68 -0.64 0
v -3.84 -0.8 0
v -4 -0.8 0
v -4 -0.64 0
v -3.84 -0.64 0
v -4 -0.8 0
v -4.16 -0.8 0
v -4.16 -0.64 0
v -4 -0.64 0
v -5.76 -0.8 0
v -5.92 -0.8 0
v -5.92 -0.64 0
v -5.76 -0.64 0
v -5.92 -0.8 0
v -6.08 -0.8 0
v -6.08 -0.64 0
v -5.92 -0.64 0
v -6.4 -0.8 0
v -6.56 -0.8 0
v -6.56 -0.64 0
v -6.4 -0.64 0
v -6.56 -0.8 0
v -6.72 -0.8 0
v -6.72 -0.64 0
v -6.56 -0.64 0
v -3.2 -0.96 0
v -3.36 -0.96 0
v -3.36 -0.8 0
v -3.2 -0.8 0
v -3.36 -0.96 0
v -3.52 -0.96 0
v -3.52 -0.8 0
v -3.36 -0.8 0
v -3.84 -0.96 0
v -4 -0.96 0
v -4 -0.8 0
v -3.84 -0.8 0
v -4 -0.96 0
v -4.16 -0.96 0
v -4.16 -0.8 0
v -4 -0.8 0
v -2.24 -1.28 0
v -2.4 -1.28 0
v -2.4 -1.12 0
v -2.24 -1.12 0
v -2.4 -1.28 0
v -2.56 -1.28 0
v -2.56 -1.12 0
v -2.4 -1.12 0
v -2.56 -1.28 0
v -2.72 -1.28 0
v -2.72 -1.12 0
v -2.56 -1.12 0
v -2.72 -1.28 0
v -2.88 -1.28 0
v -2.88 -1.12 0
v -2.72 -1.12 0
v -2.88 -1.28 0
v -3.04 -1.28 0
v -3.04 -1.12 0
v -2.88 -1.12 0
v -3.04 -1.28 0
v -3.2 -1.28 0
v -3.2 -1.12 0
v -3.04 -1.12 0
v -2.24 -1.44 0
v -2.4 -1.44 0
v -2.4 -1.28 0
v -2.24 -1.28 0
v -2.4 -1.44 0
v -2.56 -1.44 0
v -2.56 -1.28 0
v -2.4 -1.28 0
v -2.56 -1.44 0
v -2.72 -1.44 0
v -2.72 -1.28 0
v -2.56 -1.28 0
v -2.72 -1.44 0
v -2.88 -1.44 0
v -2.88 -1.28 0
v -2.72 -1.28 0
v -2.88 -1.44 0
v -3.04 -1.44 0
v -3.04 -1.28 0
v -2.88 -1.28 0
v -3.04 -1.44 0
v -3.2 -1.44 0
v -3.2 -1.28 0
v -3.04 -1.28 0
v -4.8 -1.44 0
v -4.96 -1.44 0
v -4.96 -1.28 0
v -4.8 -1.28 0
v -4.96 -1.44 0
v -5.12 -1.44 0
v -5.12 -1.28 0
v -4.96 -1.28 0
v -5.12 -1.44 0
v -5.28 -1.44 0
v -5.28 -1.28 0
v -5.12 -1.28 0
v -5.28 -1.44 0
v -5.44 -1.44 0
v -5.44 -1.28 0
v -5.28 -1.28 0
v -5.44 -1.44 0
v -5.6 -1.44 0
v -5.6 -1.28 0
v -5.44 -1.28 0
v -5.6 -1.44 0
v -5.76 -1.44 0
v -5.76 -1.28 0
v -5.6 -1.28 0
v -2.24 -1.6 0
v -2.4 -1.6 0
v -2.4 -1.44 0
v -2.24 -1.44 0
v -2.4 -1.6 0
v -2.56 -1.6 0
v -2.56 -1.44 0
v -2.4 -1.44 0
v -2.56 -1.6 0
v -2.72 -1.6 0
v -2.72 -1.44 0
v -2.56 -1.44 0
v -2.72 -1.6 0
v -2.88 -1.6 0
v -2.88 -1.44 0
v -2.72 -1.44 0
v -2.88 -1.6 0
v -3.04 -1.6 0
v -3.04 -1.44 0
v -2.88 -1.44 0
v -3.04 -1.6 0
v -3.2 -1.6 0
v -3.2 -1.44 0
v -3.04 -1.44 0
v -4.8 -1.6 0
v -4.96 -1.6 0
v -4.96 -1.44 0
v -4.8 -1.44 0
v -4.96 -1.6 0
v -5.12 -1.6 0
v -5.12 -1.44 0
v -4.96 -1.44 0
v -5.12 -1.6 0
v -5.28 -1.6 0
v -5.28 -1.44 0
v -5.12 -1.44 0
v -5.28 -1.6 0
v -5.44 -1.6 0
v -5.44 -1.44 0
v -5.28 -1.44 0
v -5.44 -1.6 0
v -5.6 -1.6 0
v -5.6 -1.44 0
v -5.44 -1.44 0
v -5.6 -1.6 0
v -5.76 -1.6 0
v -5.76 -1.44 0
v -5.6 -1.44 0
v -2.24 -1.76 0
v -2.4 -1.76 0
v -2.4 -1.6 0
v -2.24 -1.6 0
v -2.4 -1.76 0
v -2.56 -1.76 0
v -2.56 -1.6 0
v -2.4 -1.6 0
v -2.56 -1.76 0
v -2.72 -1.76 0
v -2.72 -1.6 0
v -2.56 -1.6 0
v -2.72 -1.76 0
v -2.88 -1.76 0
v -2.88 -1.6 0
v -2.72 -1.6 0
v -2.88 -1.76 0
v -3.04 -1.76 0
v -3.04 -1.6 0
v -2.88 -1.6 0
v -3.04 -1.76 0
v -3.2 -1.76 0
v -3.2 -1.6 0
v -3.04 -1.6 0
v -4.8 -1.76 0
v -4.96 -1.76 0
v -4.96 -1.6 0
v -4.8 -1.6 0
v -4.96 -1.76 0
v -5.12 -1.76 0
v -5.12 -1.6 0
v -4.96 -1.6 0
v -5.12 -1.76 0
v -5.28 -1.76 0
v -5.28 -1.6 0
v -5.12 -1.6 0
v -5.28 -1.76 0
v -5.44 -1.76 0
v -5.44 -1.6 0
v -5.28 -1.6 0
v -5.44 -1.76 0
v -5.6 -1.76 0
v -5.6 -1.6 0
v -5.44 -1.6 0
v -5.6 -1.76 0
v -5.76 -1.76 0
v -5.76 -1.6 0
v -5.6 -1.6 0
v -2.24 -1.92 0
v -2.4 -1.92 0
v -2.4 -1.76 0
v -2.24 -1.76 0
v -2.4 -1.92 0
v -2.56 -1.92 0
v -2.56 -1.76 0
v -2.4 -1.76 0
v -2.88 -1.92 0
v -3.04 -1.92 0
v -3.04 -1.76 0
v -2.88 -1.76 0
v -3.04 -1.92 0
v -3.2 -1.92 0
v -3.2 -1.76 0
v -3.04 -1.76 0
v -4.8 -1.92 0
v -4.96 -1.92 0
v -4.96 -1.76 0
v -4.8 -1.76 0
v -4.96 -1.92 0
v -5.12 -1.92 0
v -5.12 -1.76 0
v -4.96 -1.76 0
v -5.12 -1.92 0
v -5.28 -1.92 0
v -5.28 -1.76 0
v -5.12 -1.76 0
v -5.28 -1.92 0
v -5.44 -1.92 0
v -5.44 -1.76 0
v -5.28 -1.76 0
v -5.44 -1.92 0
v -5.6 -1.92 0
v -5.6 -1.76 0
v -5.44 -1.76 0
v -5.6 -1.92 0
v -5.76 -1.92 0
v -5.76 -1.76 0
v -5.6 -1.76 0
v -3.68 -2.08 0
v -3.84 -2.08 0
v -3.84 -1.92 0
v -3.68 -1.92 0
v -3.84 -2.08 0
v -4 -2.08 0
v -4 -1.92 0
v -3.84 -1.92 0
v -4 -2.08 0
v -4.16 -2.08 0
v -4.16 -1.92 0
v -4 -1.92 0
v -4.16 -2.08 0
v -4.32 -2.08 0
v -4.32 -1.92 0
v -4.16 -1.92 0
v -4.32 -2.08 0
v -4.48 -2.08 0
v -4.48 -1.92 0
v -4.32 -1.92 0
v -4.48 -2.08 0
v -4.64 -2.08 0
v -4.64 -1.92 0
v -4.48 -1.92 0
v -4.8 -2.08 0
v -4.96 -2.08 0
v -4.96 -1.92 0
v -4.8 -1.92 0
v -4.96 -2.08 0
v -5.12 -2.08 0
v -5.12 -1.92 0
v -4.96 -1.92 0
v -5.44 -2.08 0
v -5.6 -2.08 0
v -5.6 -1.92 0
v -5.44 -1.92 0
v -5.6 -2.08 0
v -5.76 -2.08 0
v -5.76 -1.92 0
v -5.6 -1.92 0
v -3.68 -2.24 0
v -3.84 -2.24 0
v -3.84 -2.08 0
v -3.68 -2.08 0
v -3.84 -2.24 0
v -4 -2.24 0
v -4 -2.08 0
v -3.84 -2.08 0
v -4 -2.24 0
v -4.16 -2.24 0
v -4.16 -2.08 0
v -4 -2.08 0
v -4.16 -2.24 0
v -4.32 -2.24 0
v -4.32 -2.08 0
v -4.16 -2.08 0
v -4.32 -2.24 0
v -4.48 -2.24 0
v -4.48 -2.08 0
v -4.32 -2.08 0
v -4.48 -2.24 0
v -4.64 -2.24 0
v -4.64 -2.08 0
v -4.48 -2.08 0
v -3.68 -2.4 0
v -3.84 -2.4 0
v -3.84 -2.24 0
v -3.68 -2.24 0
v -3.84 -2.4 0
v -4 -2.4 0
v -4 -2.24 0
v -3.84 -2.24 0
v -4 -2.4 0
v -4.16 -2.4 0
v -4.16 -2.24 0
v -4 -2.24 0
v -4.16 -2.4 0
v -4.32 -2.4 0
v -4.32 -2.24 0
v -4.16 -2.24 0
v -4.32 -2.4 0
v -4.48 -2.4 0
v -4.48 -2.24 0
v -4.32 -2.24 0
v -4.48 -2.4 0
v -4.64 -2.4 0
v -4.64 -2.24 0
v -4.48 -2.24 0
v -3.68 -2.56 0
v -3.84 -2.56 0
v -3.84 -2.4 0
v -3.68 -2.4 0
v -3.84 -2.56 0
v -4 -2.56 0
v -4 -2.4 0
v -3.84 -2.4 0
v -4 -2.56 0
v -4.16 -2.56 0
v -4.16 -2.4 0
v -4 -2.4 0
v -4.16 -2.56 0
v -4.32 -2.56 0
v -4.32 -2.4 0
v -4.16 -2.4 0
v -4.32 -2.56 0
v -4.48 -2.56 0
v -4.48 -2.4 0
v -4.32 -2.4 0
v -4.48 -2.56 0
v -4.64 -2.56 0
v -4.64 -2.4 0
v -4.48 -2.4 0
v -3.68 -2.72 0
v -3.84 -2.72 0
v -3.84 -2.56 0
v -3.68 -2.56 0
v -3.84 -2.72 0
v -4 -2.72 0
v -4 -2.56 0
v -3.84 -2.56 0
v -4.32 -2.72 0
v -4.48 -2.72 0
v -4.48 -2.56 0
v -4.32 -2.56 0
v -4.48 -2.72 0
v -4.64 -2.72 0
v -4.64 -2.56 0
v -4.48 -2.56 0
v -5.12 -5.28 0
v -5.28 -5.28 0
v -5.28 -5.12 0
v -5.12 -5.12 0
v -5.28 -5.28 0
v -5.44 -5.28 0
v -5.44 -5.12 0
v -5.28 -5.12 0
v -5.44 -5.28 0
v -5.6 -5.28 0
v -5.6 -5.12 0
v -5.44 -5.12 0
v -5.6 -5.28 0
v -5.76 -5.28 0
v -5.76 -5.12 0
v -5.6 -5.12 0
v -5.76 -5.28 0
v -5.92 -5.28 0
v -5.92 -5.12 0
v -5.76 -5.12 0
v -5.92 -5.28 0
v -6.08 -5.28 0
v -6.08 -5.12 0
v -5.92 -5.12 0
v -5.12 -5.44 0
v -5.28 -5.44 0
v -5.28 -5.28 0
v -5.12 -5.28 0
v -5.28 -5.44 0
v -5.44 -5.44 0
v -5.44 -5.28 0
v -5.28 -5.28 0
v -5.44 -5.44 0
v -5.6 -5.44 0
v -5.6 -5.28 0
v -5.44 -5.28 0
v -5.6 -5.44 0
v -5.76 -5.44 0
v -5.76 -5.28 0
v -5.6 -5.28 0
v -5.76 -5.44 0
v -5.92 -5.44 0
v -5.92 -5.28 0
v -5.76 -5.28 0
v -5.92 -5.44 0
v -6.08 -5.44 0
v -6.08 -5.28 0
v -5.92 -5.28 0
v -5.12 -5.6 0
v -5.28 -5.6 0
v -5.28 -5.44 0
v -5.12 -5.44 0
v -5.28 -5.6 0
v -5.44 -5.6 0
v -5.44 -5.44 0
v -5.28 -5.44 0
v -5.44 -5.6 0
v -5.6 -5.6 0
v -5.6 -5.44 0
v -5.44 -5.44 0
v -5.6 -5.6 0
v -5.76 -5.6 0
v -5.76 -5.44 0
v -5.6 -5.44 0
v -5.76 -5.6 0
v -5.92 -5.6 0
v -5.92 -5.44 0
v -5.76 -5.44 0
v -5.92 -5.6 0
v -6.08 -5.6 0
v -6.08 -5.44 0
v -5.92 -5.44 0
v -3.36 -5.76 0
v -3.52 -5.76 0
v -3.52 -5.6 0
v -3.36 -5.6 0
v -5.12 -5.76 0
v -5.28 -5.76 0
v -5.28 -5.6 0
v -5.12 -5.6 0
v -5.28 -5.76 0
v -5.44 -5.76 0
v -5.44 -5.6 0
v -5.28 -5.6 0
v -5.44 -5.76 0
v -5.6 -5.76 0
v -5.6 -5.6 0
v -5.44 -5.6 0
v -5.6 -5.76 0
v -5.76 -5.76 0
v -5.76 -5.6 0
v -5.6 -5.6 0
v -5.76 -5.76 0
v -5.92 -5.76 0
v -5.92 -5.6 0
v -5.76 -5.6 0
v -5.92 -5.76 0
v -6.08 -5.76 0
v -6.08 -5.6 0
v -5.92 -5.6 0
v -5.12 -5.92 0
v -5.28 -5.92 0
v -5.28 -5.76 0
v -5.12 -5.76 0
v -5.28 -5.92 0
v -5.44 -5.92 0
v -5.44 -5.76 0
v -5.28 -5.76 0
v -5.76 -5.92 0
v -5.92 -5.92 0
v -5.92 -5.76 0
v -5.76 -5.76 0
v -5.92 -5.92 0
v -6.08 -5.92 0
v -6.08 -5.76 0
v -5.92 -5.76 0
v -3.84 -6.08 0
v -4 -6.08 0
v -4 -5.92 0
v -3.84 -5.92 0
v -4 -6.08 0
v -4.16 -6.08 0
v -4.16 -5.92 0
v -4 -5.92 0
v -4.16 -6.08 0
v -4.32 -6.08 0
v -4.32 -5.92 0
v -4.16 -5.92 0
v -4.32 -6.08 0
v -4.48 -6.08 0
v -4.48 -5.92 0
v -4.32 -5.92 0
v -4.48 -6.08 0
v -4.64 -6.08 0
v -4.64 -5.92 0
v -4.48 -5.92 0
v -4.64 -6.08 0
v -4.8 -6.08 0
v -4.8 -5.92 0
v -4.64 -5.92 0
v -3.84 -6.24 0
v -4 -6.24 0
v -4 -6.08 0
v -3.84 -6.08 0
v -4 -6.24 0
v -4.16 -6.24 0
v -4.16 -6.08 0
v -4 -6.08 0
v -4.16 -6.24 0
v -4.32 -6.24 0
v -4.32 -6.08 0
v -4.16 -6.08 0
v -4.32 -6.24 0
v -4.48 -6.24 0
v -4.48 -6.08 0
v -4.32 -6.08 0
v -4.48 -6.24 0
v -4.64 -6.24 0
v -4.64 -6.08 0
v -4.48 -6.08 0
v -4.64 -6.24 0
v -4.8 -6.24 0
v -4.8 -6.08 0
v -4.64 -6.08 0
v -3.84 -6.4 0
v -4 -6.4 0
v -4 -6.24 0
v -3.84 -6.24 0
v -4 -6.4 0
v -4.16 -6.4 0
v -4.16 -6.24 0
v -4 -6.24 0
v -4.16 -6.4 0
v -4.32 -6.4 0
v -4.32 -6.24 0
v -4.16 -6.24 0
v -4.32 -6.4 0
v -4.48 -6.4 0
v -4.48 -6.24 0
v -4.32 -6.24 0
v -4.48 -6.4 0
v -4.64 -6.4 0
v -4.64 -6.24 0
v -4.48 -6.24 0
v -4.64 -6.4 0
v -4.8 -6.4 0
v -4.8 -6.24 0
v -4.64 -6.24 0
v -3.84 -6.56 0
v -4 -6.56 0
v -4 -6.4 0
v -3.84 -6.4 0
v -4 -6.56 0
v -4.16 -6.56 0
v -4.16 -6.4 0
v -4 -6.4 0
v -4.16 -6.56 0
v -4.32 -6.56 0
v -4.32 -6.4 0
v -4.16 -6.4 0
v -4.32 -6.56 0
v -4.48 -6.56 0
v -4.48 -6.4 0
v -4.32 -6.4 0
v -4.48 -6.56 0
v -4.64 -6.56 0
v -4.64 -6.4 0
v -4.48 -6.4 0
v -4.64 -6.56 0
v -4.8 -6.56 0
v -4.8 -6.4 0
v -4.64 -6.4 0
v -3.84 -6.72 0
v -4 -6.72 0
v -4 -6.56 0
v -3.84 -6.56 0
v -4 -6.72 0
v -4.16 -6.72 0
v -4.16 -6.56 0
v -4 -6.56 0
v -4.48 -6.72 0
v -4.64 -6.72 0
v -4.64 -6.56 0
v -4.48 -6.56 0
v -4.64 -6.72 0
v -4.8 -6.72 0
v -4.8 -6.56 0
v -4.64 -6.56 0

# Texture cooridinates (Count = 112)
vt 0.6356838 0.9189815
vt 0.6527778 0.9189815
vt 0.6527778 0.9560185
vt 0.6356838 0.9560185
vt 0.6549146 0.9189815
vt 0.6720086 0.9189815
vt 0.6720086 0.9560185
vt 0.6549146 0.9560185
vt 0.6741453 0.9189815
vt 0.6912393 0.9189815
vt 0.6912393 0.9560185
vt 0.6741453 0.9560185
vt 0.6933761 0.9189815
vt 0.7104701 0.9189815
vt 0.7104701 0.9560185
vt 0.6933761 0.9560185
vt 0.7126068 0.9189815
vt 0.7297009 0.9189815
vt 0.7297009 0.9560185
vt 0.7126068 0.9560185
vt 0.7318376 0.9189815
vt 0.7489316 0.9189815
vt 0.7489316 0.9560185
vt 0.7318376 0.9560185
vt 0.6356838 0.8773148
vt 0.6527778 0.8773148
vt 0.6527778 0.9143518
vt 0.6356838 0.9143518
vt 0.6549146 0.8773148
vt 0.6720086 0.8773148
vt 0.6720086 0.9143518
vt 0.6549146 0.9143518
vt 0.6741453 0.8773148
vt 0.6912393 0.8773148
vt 0.6912393 0.9143518
vt 0.6741453 0.9143518
vt 0.6933761 0.8773148
vt 0.7104701 0.8773148
vt 0.7104701 0.9143518
vt 0.6933761 0.9143518
vt 0.7126068 0.8773148
vt 0.7297009 0.8773148
vt 0.7297009 0.9143518
vt 0.7126068 0.9143518
vt 0.7318376 0.8773148
vt 0.7489316 0.8773148
vt 0.7489316 0.9143518
vt 0.7318376 0.9143518
vt 0.6356838 0.8356482
vt 0.6527778 0.8356482
vt 0.6527778 0.8726852
vt 0.6356838 0.8726852
vt 0.6549146 0.8356482
vt 0.6720086 0.8356482
vt 0.6720086 0.8726852
vt 0.6549146 0.8726852
vt 0.6741453 0.8356482
vt 0.6912393 0.8356482
vt 0.6912393 0.8726852
vt 0.6741453 0.8726852
vt 0.6933761 0.8356482
vt 0.7104701 0.8356482
vt 0.7104701 0.8726852
vt 0.6933761 0.8726852
vt 0.7126068 0.8356482
vt 0.7297009 0.8356482
vt 0.7297009 0.8726852
vt 0.7126068 0.8726852
vt 0.7318376 0.8356482
vt 0.7489316 0.8356482
vt 0.7489316 0.8726852
vt 0.7318376 0.8726852
vt 0.6356838 0.7939815
vt 0.6527778 0.7939815
vt 0.6527778 0.8310185
vt 0.6356838 0.8310185
vt 0.6549146 0.7939815
vt 0.6720086 0.7939815
vt 0.6720086 0.8310185
vt 0.6549146 0.8310185
vt 0.6741453 0.7939815
vt 0.6912393 0.7939815
vt 0.6912393 0.8310185
vt 0.6741453 0.8310185
vt 0.6933761 0.7939815
vt 0.7104701 0.7939815
vt 0.7104701 0.8310185
vt 0.6933761 0.8310185
vt 0.7126068 0.7939815
vt 0.7297009 0.7939815
vt 0.7297009 0.8310185
vt 0.7126068 0.8310185
vt 0.7318376 0.7939815
vt 0.7489316 0.7939815
vt 0.7489316 0.8310185
vt 0.7318376 0.8310185
vt 0.6356838 0.7523148
vt 0.6527778 0.7523148
vt 0.6527778 0.7893518
vt 0.6356838 0.7893518
vt 0.6549146 0.7523148
vt 0.6720086 0.7523148
vt 0.6720086 0.7893518
vt 0.6549146 0.7893518
vt 0.7126068 0.7523148
vt 0.7297009 0.7523148
vt 0.7297009 0.7893518
vt 0.7126068 0.7893518
vt 0.7318376 0.7523148
vt 0.7489316 0.7523148
vt 0.7489316 0.7893518
vt 0.7318376 0.7893518

# Normal
vn 0 0 -1

# Mesh description
g demo_map-2_mesh_0022

# Faces
f 1/1/1 2/2/1 3/3/1 4/4/1
f 5/5/1 6/6/1 7/7/1 8/8/1
f 9/9/1 10/10/1 11/11/1 12/12/1
f 13/13/1 14/14/1 15/15/1 16/16/1
f 17/17/1 18/18/1 19/19/1 20/20/1
f 21/21/1 22/22/1 23/23/1 24/24/1
f 25/1/1 26/2/1 27/3/1 28/4/1
f 29/5/1 30/6/1 31/7/1 32/8/1
f 33/9/1 34/10/1 35/11/1 36/12/1
f 37/13/1 38/14/1 39/15/1 40/16/1
f 41/17/1 42/18/1 43/19/1 44/20/1
f 45/21/1 46/22/1 47/23/1 48/24/1
f 49/25/1 50/26/1 51/27/1 52/28/1
f 53/29/1 54/30/1 55/31/1 56/32/1
f 57/33/1 58/34/1 59/35/1 60/36/1
f 61/37/1 62/38/1 63/39/1 64/40/1
f 65/41/1 66/42/1 67/43/1 68/44/1
f 69/45/1 70/46/1 71/47/1 72/48/1
f 73/25/1 74/26/1 75/27/1 76/28/1
f 77/29/1 78/30/1 79/31/1 80/32/1
f 81/33/1 82/34/1 83/35/1 84/36/1
f 85/37/1 86/38/1 87/39/1 88/40/1
f 89/41/1 90/42/1 91/43/1 92/44/1
f 93/45/1 94/46/1 95/47/1 96/48/1
f 97/49/1 98/50/1 99/51/1 100/52/1
f 101/53/1 102/54/1 103/55/1 104/56/1
f 105/57/1 106/58/1 107/59/1 108/60/1
f 109/61/1 110/62/1 111/63/1 112/64/1
f 113/65/1 114/66/1 115/67/1 116/68/1
f 117/69/1 118/70/1 119/71/1 120/72/1
f 121/49/1 122/50/1 123/51/1 124/52/1
f 125/53/1 126/54/1 127/55/1 128/56/1
f 129/57/1 130/58/1 131/59/1 132/60/1
f 133/61/1 134/62/1 135/63/1 136/64/1
f 137/65/1 138/66/1 139/67/1 140/68/1
f 141/69/1 142/70/1 143/71/1 144/72/1
f 145/73/1 146/74/1 147/75/1 148/76/1
f 149/77/1 150/78/1 151/79/1 152/80/1
f 153/81/1 154/82/1 155/83/1 156/84/1
f 157/85/1 158/86/1 159/87/1 160/88/1
f 161/89/1 162/90/1 163/91/1 164/92/1
f 165/93/1 166/94/1 167/95/1 168/96/1
f 169/73/1 170/74/1 171/75/1 172/76/1
f 173/77/1 174/78/1 175/79/1 176/80/1
f 177/81/1 178/82/1 179/83/1 180/84/1
f 181/85/1 182/86/1 183/87/1 184/88/1
f 185/89/1 186/90/1 187/91/1 188/92/1
f 189/93/1 190/94/1 191/95/1 192/96/1
f 193/97/1 194/98/1 195/99/1 196/100/1
f 197/101/1 198/102/1 199/103/1 200/104/1
f 201/105/1 202/106/1 203/107/1 204/108/1
f 205/109/1 206/110/1 207/111/1 208/112/1
f 209/97/1 210/98/1 211/99/1 212/100/1
f 213/101/1 214/102/1 215/103/1 216/104/1
f 217/105/1 218/106/1 219/107/1 220/108/1
f 221/109/1 222/110/1 223/111/1 224/112/1
f 225/1/1 226/2/1 227/3/1 228/4/1
f 229/5/1 230/6/1 231/7/1 232/8/1
f 233/9/1 234/10/1 235/11/1 236/12/1
f 237/13/1 238/14/1 239/15/1 240/16/1
f 241/17/1 242/18/1 243/19/1 244/20/1
f 245/21/1 246/22/1 247/23/1 248/24/1
f 249/25/1 250/26/1 251/27/1 252/28/1
f 253/29/1 254/30/1 255/31/1 256/32/1
f 257/33/1 258/34/1 259/35/1 260/36/1
f 261/37/1 262/38/1 263/39/1 264/40/1
f 265/41/1 266/42/1 267/43/1 268/44/1
f 269/45/1 270/46/1 271/47/1 272/48/1
f 273/1/1 274/2/1 275/3/1 276/4/1
f 277/5/1 278/6/1 279/7/1 280/8/1
f 281/9/1 282/10/1 283/11/1 284/12/1
f 285/13/1 286/14/1 287/15/1 288/16/1
f 289/17/1 290/18/1 291/19/1 292/20/1
f 293/21/1 294/22/1 295/23/1 296/24/1
f 297/49/1 298/50/1 299/51/1 300/52/1
f 301/53/1 302/54/1 303/55/1 304/56/1
f 305/57/1 306/58/1 307/59/1 308/60/1
f 309/61/1 310/62/1 311/63/1 312/64/1
f 313/65/1 314/66/1 315/67/1 316/68/1
f 317/69/1 318/70/1 319/71/1 320/72/1
f 321/25/1 322/26/1 323/27/1 324/28/1
f 325/29/1 326/30/1 327/31/1 328/32/1
f 329/33/1 330/34/1 331/35/1 332/36/1
f 333/37/1 334/38/1 335/39/1 336/40/1
f 337/41/1 338/42/1 339/43/1 340/44/1
f 341/45/1 342/46/1 343/47/1 344/48/1
f 345/73/1 346/74/1 347/75/1 348/76/1
f 349/77/1 350/78/1 351/79/1 352/80/1
f 353/81/1 354/82/1 355/83/1 356/84/1
f 357/85/1 358/86/1 359/87/1 360/88/1
f 361/89/1 362/90/1 363/91/1 364/92/1
f 365/93/1 366/94/1 367/95/1 368/96/1
f 369/49/1 370/50/1 371/51/1 372/52/1
f 373/53/1 374/54/1 375/55/1 376/56/1
f 377/57/1 378/58/1 379/59/1 380/60/1
f 381/61/1 382/62/1 383/63/1 384/64/1
f 385/65/1 386/66/1 387/67/1 388/68/1
f 389/69/1 390/70/1 391/71/1 392/72/1
f 393/97/1 394/98/1 395/99/1 396/100/1
f 397/101/1 398/102/1 399/103/1 400/104/1
f 401/105/1 402/106/1 403/107/1 404/108/1
f 405/109/1 406/110/1 407/111/1 408/112/1
f 409/73/1 410/74/1 411/75/1 412/76/1
f 413/77/1 414/78/1 415/79/1 416/80/1
f 417/81/1 418/82/1 419/83/1 420/84/1
f 421/85/1 422/86/1 423/87/1 424/88/1
f 425/89/1 426/90/1 427/91/1 428/92/1
f 429/93/1 430/94/1 431/95/1 432/96/1
f 433/1/1 434/2/1 435/3/1 436/4/1
f 437/5/1 438/6/1 439/7/1 440/8/1
f 441/9/1 442/10/1 443/11/1 444/12/1
f 445/13/1 446/14/1 447/15/1 448/16/1
f 449/17/1 450/18/1 451/19/1 452/20/1
f 453/21/1 454/22/1 455/23/1 456/24/1
f 457/97/1 458/98/1 459/99/1 460/100/1
f 461/101/1 462/102/1 463/103/1 464/104/1
f 465/105/1 466/106/1 467/107/1 468/108/1
f 469/109/1 470/110/1 471/111/1 472/112/1
f 473/25/1 474/26/1 475/27/1 476/28/1
f 477/29/1 478/30/1 479/31/1 480/32/1
f 481/33/1 482/34/1 483/35/1 484/36/1
f 485/37/1 486/38/1 487/39/1 488/40/1
f 489/41/1 490/42/1 491/43/1 492/44/1
f 493/45/1 494/46/1 495/47/1 496/48/1
f 497/49/1 498/50/1 499/51/1 500/52/1
f 501/53/1 502/54/1 503/55/1 504/56/1
f 505/57/1 506/58/1 507/59/1 508/60/1
f 509/61/1 510/62/1 511/63/1 512/64/1
f 513/65/1 514/66/1 515/67/1 516/68/1
f 517/69/1 518/70/1 519/71/1 520/72/1
f 521/73/1 522/74/1 523/75/1 524/76/1
f 525/77/1 526/78/1 527/79/1 528/80/1
f 529/81/1 530/82/1 531/83/1 532/84/1
f 533/85/1 534/86/1 535/87/1 536/88/1
f 537/89/1 538/90/1 539/91/1 540/92/1
f 541/93/1 542/94/1 543/95/1 544/96/1
f 545/97/1 546/98/1 547/99/1 548/100/1
f 549/101/1 550/102/1 551/103/1 552/104/1
f 553/105/1 554/106/1 555/107/1 556/108/1
f 557/109/1 558/110/1 559/111/1 560/112/1
f 561/1/1 562/2/1 563/3/1 564/4/1
f 565/5/1 566/6/1 567/7/1 568/8/1
f 569/9/1 570/10/1 571/11/1 572/12/1
f 573/13/1 574/14/1 575/15/1 576/16/1
f 577/17/1 578/18/1 579/19/1 580/20/1
f 581/21/1 582/22/1 583/23/1 584/24/1
f 585/25/1 586/26/1 587/27/1 588/28/1
f 589/29/1 590/30/1 591/31/1 592/32/1
f 593/33/1 594/34/1 595/35/1 596/36/1
f 597/37/1 598/38/1 599/39/1 600/40/1
f 601/41/1 602/42/1 603/43/1 604/44/1
f 605/45/1 606/46/1 607/47/1 608/48/1
f 609/49/1 610/50/1 611/51/1 612/52/1
f 613/53/1 614/54/1 615/55/1 616/56/1
f 617/57/1 618/58/1 619/59/1 620/60/1
f 621/61/1 622/62/1 623/63/1 624/64/1
f 625/65/1 626/66/1 627/67/1 628/68/1
f 629/69/1 630/70/1 631/71/1 632/72/1
f 633/109/1 634/110/1 635/111/1 636/112/1
f 637/73/1 638/74/1 639/75/1 640/76/1
f 641/77/1 642/78/1 643/79/1 644/80/1
f 645/81/1 646/82/1 647/83/1 648/84/1
f 649/85/1 650/86/1 651/87/1 652/88/1
f 653/89/1 654/90/1 655/91/1 656/92/1
f 657/93/1 658/94/1 659/95/1 660/96/1
f 661/97/1 662/98/1 663/99/1 664/100/1
f 665/101/1 666/102/1 667/103/1 668/104/1
f 669/105/1 670/106/1 671/107/1 672/108/1
f 673/109/1 674/110/1 675/111/1 676/112/1
f 677/1/1 678/2/1 679/3/1 680/4/1
f 681/5/1 682/6/1 683/7/1 684/8/1
f 685/9/1 686/10/1 687/11/1 688/12/1
f 689/13/1 690/14/1 691/15/1 692/16/1
f 693/17/1 694/18/1 695/19/1 696/20/1
f 697/21/1 698/22/1 699/23/1 700/24/1
f 701/25/1 702/26/1 703/27/1 704/28/1
f 705/29/1 706/30/1 707/31/1 708/32/1
f 709/33/1 710/34/1 711/35/1 712/36/1
f 713/37/1 714/38/1 715/39/1 716/40/1
f 717/41/1 718/42/1 719/43/1 720/44/1
f 721/45/1 722/46/1 723/47/1 724/48/1
f 725/49/1 726/50/1 727/51/1 728/52/1
f 729/53/1 730/54/1 731/55/1 732/56/1
f 733/57/1 734/58/1 735/59/1 736/60/1
f 737/61/1 738/62/1 739/63/1 740/64/1
f 741/65/1 742/66/1 743/67/1 744/68/1
f 745/69/1 746/70/1 747/71/1 748/72/1
f 749/73/1 750/74/1 751/75/1 752/76/1
f 753/77/1 754/78/1 755/79/1 756/80/1
f 757/81/1 758/82/1 759/83/1 760/84/1
f 761/85/1 762/86/1 763/87/1 764/88/1
f 765/89/1 766/90/1 767/91/1 768/92/1
f 769/93/1 770/94/1 771/95/1 772/96/1
f 773/97/1 774/98/1 775/99/1 776/100/1
f 777/101/1 778/102/1 779/103/1 780/104/1
f 781/105/1 782/106/1 783/107/1 784/108/1
f 785/109/1 786/110/1 787/111/1 788/112/1

