# Tiled2Unity generated file. Do not modify by hand.
# Wavefront file for 'demo_map-2_mesh_0015.obj'

# Vertices (Count = 16)
v -2.56 -1.92 0
v -2.72 -1.92 0
v -2.72 -1.76 0
v -2.56 -1.76 0
v -2.72 -1.92 0
v -2.88 -1.92 0
v -2.88 -1.76 0
v -2.72 -1.76 0
v -2.56 -2.08 0
v -2.72 -2.08 0
v -2.72 -1.92 0
v -2.56 -1.92 0
v -2.72 -2.08 0
v -2.88 -2.08 0
v -2.88 -1.92 0
v -2.72 -1.92 0

# Texture cooridinates (Count = 16)
vt 0.6741453 0.7523148
vt 0.6912393 0.7523148
vt 0.6912393 0.7893518
vt 0.6741453 0.7893518
vt 0.6933761 0.7523148
vt 0.7104701 0.7523148
vt 0.7104701 0.7893518
vt 0.6933761 0.7893518
vt 0.6741453 0.7106482
vt 0.6912393 0.7106482
vt 0.6912393 0.7476852
vt 0.6741453 0.7476852
vt 0.6933761 0.7106482
vt 0.7104701 0.7106482
vt 0.7104701 0.7476852
vt 0.6933761 0.7476852

# Normal
vn 0 0 -1

# Mesh description
g demo_map-2_mesh_0015

# Faces
f 1/1/1 2/2/1 3/3/1 4/4/1
f 5/5/1 6/6/1 7/7/1 8/8/1
f 9/9/1 10/10/1 11/11/1 12/12/1
f 13/13/1 14/14/1 15/15/1 16/16/1

