# Tiled2Unity generated file. Do not modify by hand.
# Wavefront file for 'demo_map-2_mesh_0002.obj'

# Vertices (Count = 8)
v -6.72 -4.32 0
v -6.88 -4.32 0
v -6.88 -4.16 0
v -6.72 -4.16 0
v -6.72 -4.48 0
v -6.88 -4.48 0
v -6.88 -4.32 0
v -6.72 -4.32 0

# Texture cooridinates (Count = 8)
vt 0.514245 0.9225146
vt 0.537037 0.9225146
vt 0.537037 0.9459065
vt 0.514245 0.9459065
vt 0.514245 0.8961988
vt 0.537037 0.8961988
vt 0.537037 0.9195907
vt 0.514245 0.9195907

# Normal
vn 0 0 -1

# Mesh description
g demo_map-2_mesh_0002

# Faces
f 1/1/1 2/2/1 3/3/1 4/4/1
f 5/5/1 6/6/1 7/7/1 8/8/1

