# Tiled2Unity generated file. Do not modify by hand.
# Wavefront file for 'demo_map-2_mesh_0004.obj'

# Vertices (Count = 60)
v -5.92 -0.96 0
v -6.08 -0.96 0
v -6.08 -0.8 0
v -5.92 -0.8 0
v -6.4 -0.96 0
v -6.56 -0.96 0
v -6.56 -0.8 0
v -6.4 -0.8 0
v -3.36 -1.12 0
v -3.52 -1.12 0
v -3.52 -0.96 0
v -3.36 -0.96 0
v -3.84 -1.12 0
v -4 -1.12 0
v -4 -0.96 0
v -3.84 -0.96 0
v -2.4 -2.08 0
v -2.56 -2.08 0
v -2.56 -1.92 0
v -2.4 -1.92 0
v -2.88 -2.08 0
v -3.04 -2.08 0
v -3.04 -1.92 0
v -2.88 -1.92 0
v -4.96 -2.24 0
v -5.12 -2.24 0
v -5.12 -2.08 0
v -4.96 -2.08 0
v -5.44 -2.24 0
v -5.6 -2.24 0
v -5.6 -2.08 0
v -5.44 -2.08 0
v -6.4 -2.4 0
v -6.56 -2.4 0
v -6.56 -2.24 0
v -6.4 -2.24 0
v -3.84 -2.88 0
v -4 -2.88 0
v -4 -2.72 0
v -3.84 -2.72 0
v -4.32 -2.88 0
v -4.48 -2.88 0
v -4.48 -2.72 0
v -4.32 -2.72 0
v -5.28 -6.08 0
v -5.44 -6.08 0
v -5.44 -5.92 0
v -5.28 -5.92 0
v -5.76 -6.08 0
v -5.92 -6.08 0
v -5.92 -5.92 0
v -5.76 -5.92 0
v -4 -6.88 0
v -4.16 -6.88 0
v -4.16 -6.72 0
v -4 -6.72 0
v -4.48 -6.88 0
v -4.64 -6.88 0
v -4.64 -6.72 0
v -4.48 -6.72 0

# Texture cooridinates (Count = 12)
vt 0.6549146 0.7106482
vt 0.6720086 0.7106482
vt 0.6720086 0.7476852
vt 0.6549146 0.7476852
vt 0.7126068 0.7106482
vt 0.7297009 0.7106482
vt 0.7297009 0.7476852
vt 0.7126068 0.7476852
vt 0.3279915 0.7106482
vt 0.3450855 0.7106482
vt 0.3450855 0.7476852
vt 0.3279915 0.7476852

# Normal
vn 0 0 -1

# Mesh description
g demo_map-2_mesh_0004

# Faces
f 1/1/1 2/2/1 3/3/1 4/4/1
f 5/5/1 6/6/1 7/7/1 8/8/1
f 9/1/1 10/2/1 11/3/1 12/4/1
f 13/5/1 14/6/1 15/7/1 16/8/1
f 17/1/1 18/2/1 19/3/1 20/4/1
f 21/5/1 22/6/1 23/7/1 24/8/1
f 25/1/1 26/2/1 27/3/1 28/4/1
f 29/5/1 30/6/1 31/7/1 32/8/1
f 33/9/1 34/10/1 35/11/1 36/12/1
f 37/1/1 38/2/1 39/3/1 40/4/1
f 41/5/1 42/6/1 43/7/1 44/8/1
f 45/1/1 46/2/1 47/3/1 48/4/1
f 49/5/1 50/6/1 51/7/1 52/8/1
f 53/1/1 54/2/1 55/3/1 56/4/1
f 57/5/1 58/6/1 59/7/1 60/8/1

