# Tiled2Unity generated file. Do not modify by hand.
# Wavefront file for 'demo_map-2_mesh_0003.obj'

# Vertices (Count = 400)
v -3.04 -0.16 0
v -3.2 -0.16 0
v -3.2 0 0
v -3.04 0 0
v -3.2 -0.16 0
v -3.36 -0.16 0
v -3.36 0 0
v -3.2 0 0
v -3.04 -0.32 0
v -3.2 -0.32 0
v -3.2 -0.16 0
v -3.04 -0.16 0
v -3.2 -0.32 0
v -3.36 -0.32 0
v -3.36 -0.16 0
v -3.2 -0.16 0
v -3.04 -0.48 0
v -3.2 -0.48 0
v -3.2 -0.32 0
v -3.04 -0.32 0
v -3.2 -0.48 0
v -3.36 -0.48 0
v -3.36 -0.32 0
v -3.2 -0.32 0
v -3.04 -0.64 0
v -3.2 -0.64 0
v -3.2 -0.48 0
v -3.04 -0.48 0
v -3.2 -0.64 0
v -3.36 -0.64 0
v -3.36 -0.48 0
v -3.2 -0.48 0
v -3.04 -0.8 0
v -3.2 -0.8 0
v -3.2 -0.64 0
v -3.04 -0.64 0
v -3.2 -0.8 0
v -3.36 -0.8 0
v -3.36 -0.64 0
v -3.2 -0.64 0
v -3.04 -0.96 0
v -3.2 -0.96 0
v -3.2 -0.8 0
v -3.04 -0.8 0
v -3.2 -0.96 0
v -3.36 -0.96 0
v -3.36 -0.8 0
v -3.2 -0.8 0
v -3.04 -1.12 0
v -3.2 -1.12 0
v -3.2 -0.96 0
v -3.04 -0.96 0
v -3.2 -1.12 0
v -3.36 -1.12 0
v -3.36 -0.96 0
v -3.2 -0.96 0
v -3.04 -1.28 0
v -3.2 -1.28 0
v -3.2 -1.12 0
v -3.04 -1.12 0
v -3.2 -1.28 0
v -3.36 -1.28 0
v -3.36 -1.12 0
v -3.2 -1.12 0
v -3.04 -1.44 0
v -3.2 -1.44 0
v -3.2 -1.28 0
v -3.04 -1.28 0
v -3.2 -1.44 0
v -3.36 -1.44 0
v -3.36 -1.28 0
v -3.2 -1.28 0
v -3.04 -1.6 0
v -3.2 -1.6 0
v -3.2 -1.44 0
v -3.04 -1.44 0
v -3.2 -1.6 0
v -3.36 -1.6 0
v -3.36 -1.44 0
v -3.2 -1.44 0
v -3.04 -1.76 0
v -3.2 -1.76 0
v -3.2 -1.6 0
v -3.04 -1.6 0
v -3.2 -1.76 0
v -3.36 -1.76 0
v -3.36 -1.6 0
v -3.2 -1.6 0
v -3.04 -1.92 0
v -3.2 -1.92 0
v -3.2 -1.76 0
v -3.04 -1.76 0
v -3.2 -1.92 0
v -3.36 -1.92 0
v -3.36 -1.76 0
v -3.2 -1.76 0
v -3.04 -2.08 0
v -3.2 -2.08 0
v -3.2 -1.92 0
v -3.04 -1.92 0
v -3.2 -2.08 0
v -3.36 -2.08 0
v -3.36 -1.92 0
v -3.2 -1.92 0
v -3.04 -2.24 0
v -3.2 -2.24 0
v -3.2 -2.08 0
v -3.04 -2.08 0
v -3.2 -2.24 0
v -3.36 -2.24 0
v -3.36 -2.08 0
v -3.2 -2.08 0
v -3.04 -2.4 0
v -3.2 -2.4 0
v -3.2 -2.24 0
v -3.04 -2.24 0
v -3.2 -2.4 0
v -3.36 -2.4 0
v -3.36 -2.24 0
v -3.2 -2.24 0
v -3.04 -2.56 0
v -3.2 -2.56 0
v -3.2 -2.4 0
v -3.04 -2.4 0
v -3.2 -2.56 0
v -3.36 -2.56 0
v -3.36 -2.4 0
v -3.2 -2.4 0
v -3.04 -2.72 0
v -3.2 -2.72 0
v -3.2 -2.56 0
v -3.04 -2.56 0
v -3.2 -2.72 0
v -3.36 -2.72 0
v -3.36 -2.56 0
v -3.2 -2.56 0
v -3.04 -2.88 0
v -3.2 -2.88 0
v -3.2 -2.72 0
v -3.04 -2.72 0
v -3.2 -2.88 0
v -3.36 -2.88 0
v -3.36 -2.72 0
v -3.2 -2.72 0
v -3.04 -3.04 0
v -3.2 -3.04 0
v -3.2 -2.88 0
v -3.04 -2.88 0
v -3.2 -3.04 0
v -3.36 -3.04 0
v -3.36 -2.88 0
v -3.2 -2.88 0
v -3.04 -3.2 0
v -3.2 -3.2 0
v -3.2 -3.04 0
v -3.04 -3.04 0
v -3.2 -3.2 0
v -3.36 -3.2 0
v -3.36 -3.04 0
v -3.2 -3.04 0
v -3.04 -3.36 0
v -3.2 -3.36 0
v -3.2 -3.2 0
v -3.04 -3.2 0
v -3.2 -3.36 0
v -3.36 -3.36 0
v -3.36 -3.2 0
v -3.2 -3.2 0
v -3.04 -3.52 0
v -3.2 -3.52 0
v -3.2 -3.36 0
v -3.04 -3.36 0
v -3.2 -3.52 0
v -3.36 -3.52 0
v -3.36 -3.36 0
v -3.2 -3.36 0
v -3.04 -3.68 0
v -3.2 -3.68 0
v -3.2 -3.52 0
v -3.04 -3.52 0
v -3.2 -3.68 0
v -3.36 -3.68 0
v -3.36 -3.52 0
v -3.2 -3.52 0
v -3.04 -3.84 0
v -3.2 -3.84 0
v -3.2 -3.68 0
v -3.04 -3.68 0
v -3.2 -3.84 0
v -3.36 -3.84 0
v -3.36 -3.68 0
v -3.2 -3.68 0
v -3.04 -4 0
v -3.2 -4 0
v -3.2 -3.84 0
v -3.04 -3.84 0
v -3.2 -4 0
v -3.36 -4 0
v -3.36 -3.84 0
v -3.2 -3.84 0
v -3.04 -4.16 0
v -3.2 -4.16 0
v -3.2 -4 0
v -3.04 -4 0
v -3.2 -4.16 0
v -3.36 -4.16 0
v -3.36 -4 0
v -3.2 -4 0
v -3.04 -4.32 0
v -3.2 -4.32 0
v -3.2 -4.16 0
v -3.04 -4.16 0
v -3.2 -4.32 0
v -3.36 -4.32 0
v -3.36 -4.16 0
v -3.2 -4.16 0
v -3.04 -4.48 0
v -3.2 -4.48 0
v -3.2 -4.32 0
v -3.04 -4.32 0
v -3.2 -4.48 0
v -3.36 -4.48 0
v -3.36 -4.32 0
v -3.2 -4.32 0
v -3.04 -4.64 0
v -3.2 -4.64 0
v -3.2 -4.48 0
v -3.04 -4.48 0
v -3.2 -4.64 0
v -3.36 -4.64 0
v -3.36 -4.48 0
v -3.2 -4.48 0
v -3.04 -4.8 0
v -3.2 -4.8 0
v -3.2 -4.64 0
v -3.04 -4.64 0
v -3.2 -4.8 0
v -3.36 -4.8 0
v -3.36 -4.64 0
v -3.2 -4.64 0
v -3.04 -4.96 0
v -3.2 -4.96 0
v -3.2 -4.8 0
v -3.04 -4.8 0
v -3.2 -4.96 0
v -3.36 -4.96 0
v -3.36 -4.8 0
v -3.2 -4.8 0
v -3.04 -5.12 0
v -3.2 -5.12 0
v -3.2 -4.96 0
v -3.04 -4.96 0
v -3.2 -5.12 0
v -3.36 -5.12 0
v -3.36 -4.96 0
v -3.2 -4.96 0
v -3.04 -5.28 0
v -3.2 -5.28 0
v -3.2 -5.12 0
v -3.04 -5.12 0
v -3.2 -5.28 0
v -3.36 -5.28 0
v -3.36 -5.12 0
v -3.2 -5.12 0
v -3.04 -5.44 0
v -3.2 -5.44 0
v -3.2 -5.28 0
v -3.04 -5.28 0
v -3.2 -5.44 0
v -3.36 -5.44 0
v -3.36 -5.28 0
v -3.2 -5.28 0
v -3.04 -5.6 0
v -3.2 -5.6 0
v -3.2 -5.44 0
v -3.04 -5.44 0
v -3.2 -5.6 0
v -3.36 -5.6 0
v -3.36 -5.44 0
v -3.2 -5.44 0
v -3.04 -5.76 0
v -3.2 -5.76 0
v -3.2 -5.6 0
v -3.04 -5.6 0
v -3.2 -5.76 0
v -3.36 -5.76 0
v -3.36 -5.6 0
v -3.2 -5.6 0
v -3.04 -5.92 0
v -3.2 -5.92 0
v -3.2 -5.76 0
v -3.04 -5.76 0
v -3.2 -5.92 0
v -3.36 -5.92 0
v -3.36 -5.76 0
v -3.2 -5.76 0
v -3.04 -6.08 0
v -3.2 -6.08 0
v -3.2 -5.92 0
v -3.04 -5.92 0
v -3.2 -6.08 0
v -3.36 -6.08 0
v -3.36 -5.92 0
v -3.2 -5.92 0
v -3.04 -6.24 0
v -3.2 -6.24 0
v -3.2 -6.08 0
v -3.04 -6.08 0
v -3.2 -6.24 0
v -3.36 -6.24 0
v -3.36 -6.08 0
v -3.2 -6.08 0
v -3.04 -6.4 0
v -3.2 -6.4 0
v -3.2 -6.24 0
v -3.04 -6.24 0
v -3.2 -6.4 0
v -3.36 -6.4 0
v -3.36 -6.24 0
v -3.2 -6.24 0
v -3.04 -6.56 0
v -3.2 -6.56 0
v -3.2 -6.4 0
v -3.04 -6.4 0
v -3.2 -6.56 0
v -3.36 -6.56 0
v -3.36 -6.4 0
v -3.2 -6.4 0
v -3.04 -6.72 0
v -3.2 -6.72 0
v -3.2 -6.56 0
v -3.04 -6.56 0
v -3.2 -6.72 0
v -3.36 -6.72 0
v -3.36 -6.56 0
v -3.2 -6.56 0
v -3.04 -6.88 0
v -3.2 -6.88 0
v -3.2 -6.72 0
v -3.04 -6.72 0
v -3.2 -6.88 0
v -3.36 -6.88 0
v -3.36 -6.72 0
v -3.2 -6.72 0
v -3.04 -7.04 0
v -3.2 -7.04 0
v -3.2 -6.88 0
v -3.04 -6.88 0
v -3.2 -7.04 0
v -3.36 -7.04 0
v -3.36 -6.88 0
v -3.2 -6.88 0
v -3.04 -7.2 0
v -3.2 -7.2 0
v -3.2 -7.04 0
v -3.04 -7.04 0
v -3.2 -7.2 0
v -3.36 -7.2 0
v -3.36 -7.04 0
v -3.2 -7.04 0
v -3.04 -7.36 0
v -3.2 -7.36 0
v -3.2 -7.2 0
v -3.04 -7.2 0
v -3.2 -7.36 0
v -3.36 -7.36 0
v -3.36 -7.2 0
v -3.2 -7.2 0
v -3.04 -7.52 0
v -3.2 -7.52 0
v -3.2 -7.36 0
v -3.04 -7.36 0
v -3.2 -7.52 0
v -3.36 -7.52 0
v -3.36 -7.36 0
v -3.2 -7.36 0
v -3.04 -7.68 0
v -3.2 -7.68 0
v -3.2 -7.52 0
v -3.04 -7.52 0
v -3.2 -7.68 0
v -3.36 -7.68 0
v -3.36 -7.52 0
v -3.2 -7.52 0
v -3.04 -7.84 0
v -3.2 -7.84 0
v -3.2 -7.68 0
v -3.04 -7.68 0
v -3.2 -7.84 0
v -3.36 -7.84 0
v -3.36 -7.68 0
v -3.2 -7.68 0
v -3.04 -8 0
v -3.2 -8 0
v -3.2 -7.84 0
v -3.04 -7.84 0
v -3.2 -8 0
v -3.36 -8 0
v -3.36 -7.84 0
v -3.2 -7.84 0

# Texture cooridinates (Count = 8)
vt 0.6937322 0.9225146
vt 0.7165242 0.9225146
vt 0.7165242 0.9459065
vt 0.6937322 0.9459065
vt 0.8219373 0.9225146
vt 0.8447294 0.9225146
vt 0.8447294 0.9459065
vt 0.8219373 0.9459065

# Normal
vn 0 0 -1

# Mesh description
g demo_map-2_mesh_0003

# Faces
f 1/1/1 2/2/1 3/3/1 4/4/1
f 5/5/1 6/6/1 7/7/1 8/8/1
f 9/1/1 10/2/1 11/3/1 12/4/1
f 13/5/1 14/6/1 15/7/1 16/8/1
f 17/1/1 18/2/1 19/3/1 20/4/1
f 21/5/1 22/6/1 23/7/1 24/8/1
f 25/1/1 26/2/1 27/3/1 28/4/1
f 29/5/1 30/6/1 31/7/1 32/8/1
f 33/1/1 34/2/1 35/3/1 36/4/1
f 37/5/1 38/6/1 39/7/1 40/8/1
f 41/1/1 42/2/1 43/3/1 44/4/1
f 45/5/1 46/6/1 47/7/1 48/8/1
f 49/1/1 50/2/1 51/3/1 52/4/1
f 53/5/1 54/6/1 55/7/1 56/8/1
f 57/1/1 58/2/1 59/3/1 60/4/1
f 61/5/1 62/6/1 63/7/1 64/8/1
f 65/1/1 66/2/1 67/3/1 68/4/1
f 69/5/1 70/6/1 71/7/1 72/8/1
f 73/1/1 74/2/1 75/3/1 76/4/1
f 77/5/1 78/6/1 79/7/1 80/8/1
f 81/1/1 82/2/1 83/3/1 84/4/1
f 85/5/1 86/6/1 87/7/1 88/8/1
f 89/1/1 90/2/1 91/3/1 92/4/1
f 93/5/1 94/6/1 95/7/1 96/8/1
f 97/1/1 98/2/1 99/3/1 100/4/1
f 101/5/1 102/6/1 103/7/1 104/8/1
f 105/1/1 106/2/1 107/3/1 108/4/1
f 109/5/1 110/6/1 111/7/1 112/8/1
f 113/1/1 114/2/1 115/3/1 116/4/1
f 117/5/1 118/6/1 119/7/1 120/8/1
f 121/1/1 122/2/1 123/3/1 124/4/1
f 125/5/1 126/6/1 127/7/1 128/8/1
f 129/1/1 130/2/1 131/3/1 132/4/1
f 133/5/1 134/6/1 135/7/1 136/8/1
f 137/1/1 138/2/1 139/3/1 140/4/1
f 141/5/1 142/6/1 143/7/1 144/8/1
f 145/1/1 146/2/1 147/3/1 148/4/1
f 149/5/1 150/6/1 151/7/1 152/8/1
f 153/1/1 154/2/1 155/3/1 156/4/1
f 157/5/1 158/6/1 159/7/1 160/8/1
f 161/1/1 162/2/1 163/3/1 164/4/1
f 165/5/1 166/6/1 167/7/1 168/8/1
f 169/1/1 170/2/1 171/3/1 172/4/1
f 173/5/1 174/6/1 175/7/1 176/8/1
f 177/1/1 178/2/1 179/3/1 180/4/1
f 181/5/1 182/6/1 183/7/1 184/8/1
f 185/1/1 186/2/1 187/3/1 188/4/1
f 189/5/1 190/6/1 191/7/1 192/8/1
f 193/1/1 194/2/1 195/3/1 196/4/1
f 197/5/1 198/6/1 199/7/1 200/8/1
f 201/1/1 202/2/1 203/3/1 204/4/1
f 205/5/1 206/6/1 207/7/1 208/8/1
f 209/1/1 210/2/1 211/3/1 212/4/1
f 213/5/1 214/6/1 215/7/1 216/8/1
f 217/1/1 218/2/1 219/3/1 220/4/1
f 221/5/1 222/6/1 223/7/1 224/8/1
f 225/1/1 226/2/1 227/3/1 228/4/1
f 229/5/1 230/6/1 231/7/1 232/8/1
f 233/1/1 234/2/1 235/3/1 236/4/1
f 237/5/1 238/6/1 239/7/1 240/8/1
f 241/1/1 242/2/1 243/3/1 244/4/1
f 245/5/1 246/6/1 247/7/1 248/8/1
f 249/1/1 250/2/1 251/3/1 252/4/1
f 253/5/1 254/6/1 255/7/1 256/8/1
f 257/1/1 258/2/1 259/3/1 260/4/1
f 261/5/1 262/6/1 263/7/1 264/8/1
f 265/1/1 266/2/1 267/3/1 268/4/1
f 269/5/1 270/6/1 271/7/1 272/8/1
f 273/1/1 274/2/1 275/3/1 276/4/1
f 277/5/1 278/6/1 279/7/1 280/8/1
f 281/1/1 282/2/1 283/3/1 284/4/1
f 285/5/1 286/6/1 287/7/1 288/8/1
f 289/1/1 290/2/1 291/3/1 292/4/1
f 293/5/1 294/6/1 295/7/1 296/8/1
f 297/1/1 298/2/1 299/3/1 300/4/1
f 301/5/1 302/6/1 303/7/1 304/8/1
f 305/1/1 306/2/1 307/3/1 308/4/1
f 309/5/1 310/6/1 311/7/1 312/8/1
f 313/1/1 314/2/1 315/3/1 316/4/1
f 317/5/1 318/6/1 319/7/1 320/8/1
f 321/1/1 322/2/1 323/3/1 324/4/1
f 325/5/1 326/6/1 327/7/1 328/8/1
f 329/1/1 330/2/1 331/3/1 332/4/1
f 333/5/1 334/6/1 335/7/1 336/8/1
f 337/1/1 338/2/1 339/3/1 340/4/1
f 341/5/1 342/6/1 343/7/1 344/8/1
f 345/1/1 346/2/1 347/3/1 348/4/1
f 349/5/1 350/6/1 351/7/1 352/8/1
f 353/1/1 354/2/1 355/3/1 356/4/1
f 357/5/1 358/6/1 359/7/1 360/8/1
f 361/1/1 362/2/1 363/3/1 364/4/1
f 365/5/1 366/6/1 367/7/1 368/8/1
f 369/1/1 370/2/1 371/3/1 372/4/1
f 373/5/1 374/6/1 375/7/1 376/8/1
f 377/1/1 378/2/1 379/3/1 380/4/1
f 381/5/1 382/6/1 383/7/1 384/8/1
f 385/1/1 386/2/1 387/3/1 388/4/1
f 389/5/1 390/6/1 391/7/1 392/8/1
f 393/1/1 394/2/1 395/3/1 396/4/1
f 397/5/1 398/6/1 399/7/1 400/8/1

